<svg xmlns="http://www.w3.org/2000/svg" width="166" height="626" fill="none"><path d="M-4.286-9.136a1.86 1.86 0 0 1-1.857 1.864A1.86 1.86 0 0 1-8-9.136 1.86 1.86 0 0 1-6.143-11a1.86 1.86 0 0 1 1.857 1.864zm14.857 0a1.86 1.86 0 0 1-1.857 1.864 1.86 1.86 0 0 1-1.857-1.864A1.86 1.86 0 0 1 8.714-11a1.86 1.86 0 0 1 1.857 1.864zm14.858 0a1.86 1.86 0 0 1-1.858 1.864 1.86 1.86 0 0 1-1.857-1.864A1.86 1.86 0 0 1 23.571-11a1.86 1.86 0 0 1 1.858 1.864zm14.857 0a1.86 1.86 0 0 1-1.857 1.864 1.86 1.86 0 0 1-1.858-1.864A1.86 1.86 0 0 1 38.43-11a1.86 1.86 0 0 1 1.857 1.864zm14.857 0a1.86 1.86 0 0 1-1.857 1.864 1.86 1.86 0 0 1-1.857-1.864A1.86 1.86 0 0 1 53.286-11a1.86 1.86 0 0 1 1.857 1.864zm14.857 0a1.86 1.86 0 0 1-1.857 1.864 1.86 1.86 0 0 1-1.857-1.864A1.86 1.86 0 0 1 68.143-11 1.86 1.86 0 0 1 70-9.136zm14.857 0A1.86 1.86 0 0 1 83-7.272a1.86 1.86 0 0 1-1.857-1.864A1.86 1.86 0 0 1 83-11a1.86 1.86 0 0 1 1.857 1.864zm14.857 0a1.86 1.86 0 0 1-1.857 1.864A1.86 1.86 0 0 1 96-9.136 1.86 1.86 0 0 1 97.857-11a1.86 1.86 0 0 1 1.857 1.864zm14.857 0a1.86 1.86 0 0 1-1.857 1.864 1.861 1.861 0 0 1-1.857-1.864A1.86 1.86 0 0 1 112.714-11a1.86 1.86 0 0 1 1.857 1.864zm14.858 0a1.86 1.86 0 0 1-1.858 1.864 1.861 1.861 0 0 1-1.857-1.864A1.86 1.86 0 0 1 127.571-11c1.026 0 1.858.835 1.858 1.864zm14.857 0a1.86 1.86 0 0 1-1.857 1.864 1.861 1.861 0 0 1-1.858-1.864A1.86 1.86 0 0 1 142.429-11c1.025 0 1.857.835 1.857 1.864zm14.857 0a1.86 1.86 0 0 1-1.857 1.864 1.86 1.86 0 0 1-1.857-1.864A1.86 1.86 0 0 1 157.286-11c1.025 0 1.857.835 1.857 1.864zm14.857 0a1.86 1.86 0 0 1-1.857 1.864 1.86 1.86 0 0 1-1.857-1.864A1.86 1.86 0 0 1 172.143-11 1.86 1.86 0 0 1 174-9.136zM-4.286 5.777a1.86 1.86 0 0 1-1.857 1.865A1.86 1.86 0 0 1-8 5.777a1.86 1.86 0 0 1 1.857-1.864 1.86 1.86 0 0 1 1.857 1.864zm14.857 0a1.86 1.86 0 0 1-1.857 1.865 1.86 1.86 0 0 1-1.857-1.865 1.86 1.86 0 0 1 1.857-1.864 1.86 1.86 0 0 1 1.857 1.864zm14.858 0a1.86 1.86 0 0 1-1.858 1.865 1.86 1.86 0 0 1-1.857-1.865 1.86 1.86 0 0 1 1.857-1.864 1.86 1.86 0 0 1 1.858 1.864zm14.857 0a1.86 1.86 0 0 1-1.857 1.865 1.86 1.86 0 0 1-1.858-1.865 1.86 1.86 0 0 1 1.858-1.864 1.86 1.86 0 0 1 1.857 1.864zm14.857 0a1.86 1.86 0 0 1-1.857 1.865 1.86 1.86 0 0 1-1.857-1.865 1.86 1.86 0 0 1 1.857-1.864 1.86 1.86 0 0 1 1.857 1.864zm14.857 0a1.86 1.86 0 0 1-1.857 1.865 1.86 1.86 0 0 1-1.857-1.865 1.86 1.86 0 0 1 1.857-1.864A1.86 1.86 0 0 1 70 5.777zm14.857 0A1.86 1.86 0 0 1 83 7.642a1.86 1.86 0 0 1-1.857-1.865A1.86 1.86 0 0 1 83 3.913a1.86 1.86 0 0 1 1.857 1.864zm14.857 0a1.86 1.86 0 0 1-1.857 1.865A1.86 1.86 0 0 1 96 5.777a1.86 1.86 0 0 1 1.857-1.864 1.86 1.86 0 0 1 1.857 1.864zm14.857 0a1.86 1.86 0 0 1-1.857 1.865 1.861 1.861 0 0 1-1.857-1.865 1.86 1.86 0 0 1 1.857-1.864 1.86 1.86 0 0 1 1.857 1.864zm14.858 0c0 1.03-.832 1.865-1.858 1.865a1.861 1.861 0 0 1-1.857-1.865 1.86 1.86 0 0 1 1.857-1.864c1.026 0 1.858.835 1.858 1.864zm14.857 0c0 1.03-.832 1.865-1.857 1.865a1.861 1.861 0 0 1-1.858-1.865 1.86 1.86 0 0 1 1.858-1.864c1.025 0 1.857.835 1.857 1.864zm14.857 0c0 1.03-.832 1.865-1.857 1.865a1.86 1.86 0 0 1-1.857-1.865 1.86 1.86 0 0 1 1.857-1.864c1.025 0 1.857.835 1.857 1.864zm14.857 0a1.86 1.86 0 0 1-1.857 1.865 1.86 1.86 0 0 1-1.857-1.865 1.86 1.86 0 0 1 1.857-1.864A1.86 1.86 0 0 1 174 5.777zM-4.286 20.69a1.86 1.86 0 0 1-1.857 1.865A1.86 1.86 0 0 1-8 20.69a1.86 1.86 0 0 1 1.857-1.864 1.86 1.86 0 0 1 1.857 1.864zm14.857 0a1.86 1.86 0 0 1-1.857 1.865 1.86 1.86 0 0 1-1.857-1.864 1.86 1.86 0 0 1 1.857-1.864 1.86 1.86 0 0 1 1.857 1.864zm14.858 0a1.86 1.86 0 0 1-1.858 1.865 1.86 1.86 0 0 1-1.857-1.864 1.86 1.86 0 0 1 1.857-1.864 1.86 1.86 0 0 1 1.858 1.864zm14.857 0a1.86 1.86 0 0 1-1.857 1.865 1.86 1.86 0 0 1-1.858-1.864 1.86 1.86 0 0 1 1.858-1.864 1.86 1.86 0 0 1 1.857 1.864zm14.857 0a1.86 1.86 0 0 1-1.857 1.865 1.86 1.86 0 0 1-1.857-1.864 1.86 1.86 0 0 1 1.857-1.864 1.86 1.86 0 0 1 1.857 1.864zm14.857 0a1.86 1.86 0 0 1-1.857 1.865 1.86 1.86 0 0 1-1.857-1.864 1.86 1.86 0 0 1 1.857-1.864A1.86 1.86 0 0 1 70 20.69zm14.857 0A1.86 1.86 0 0 1 83 22.556a1.86 1.86 0 0 1-1.857-1.864A1.86 1.86 0 0 1 83 18.827a1.86 1.86 0 0 1 1.857 1.864zm14.857 0a1.86 1.86 0 0 1-1.857 1.865A1.86 1.86 0 0 1 96 20.69a1.86 1.86 0 0 1 1.857-1.864 1.86 1.86 0 0 1 1.857 1.864zm14.857 0a1.86 1.86 0 0 1-1.857 1.865 1.86 1.86 0 0 1-1.857-1.864 1.86 1.86 0 0 1 1.857-1.864 1.86 1.86 0 0 1 1.857 1.864zm14.858 0c0 1.03-.832 1.865-1.858 1.865a1.86 1.86 0 0 1-1.857-1.864 1.86 1.86 0 0 1 1.857-1.864 1.86 1.86 0 0 1 1.858 1.864zm14.857 0a1.86 1.86 0 0 1-1.857 1.865 1.861 1.861 0 0 1-1.858-1.864 1.86 1.86 0 0 1 1.858-1.864 1.86 1.86 0 0 1 1.857 1.864zm14.857 0a1.86 1.86 0 0 1-1.857 1.865 1.86 1.86 0 0 1-1.857-1.864 1.86 1.86 0 0 1 1.857-1.864 1.86 1.86 0 0 1 1.857 1.864zm14.857 0a1.86 1.86 0 0 1-1.857 1.865 1.86 1.86 0 0 1-1.857-1.864 1.86 1.86 0 0 1 1.857-1.864A1.86 1.86 0 0 1 174 20.69zM-4.286 35.604a1.86 1.86 0 0 1-1.857 1.864A1.86 1.86 0 0 1-8 35.604a1.86 1.86 0 0 1 1.857-1.864 1.86 1.86 0 0 1 1.857 1.864zm14.857 0a1.86 1.86 0 0 1-1.857 1.864 1.86 1.86 0 0 1-1.857-1.864 1.86 1.86 0 0 1 1.857-1.864 1.86 1.86 0 0 1 1.857 1.864zm14.858 0a1.86 1.86 0 0 1-1.858 1.864 1.86 1.86 0 0 1-1.857-1.864 1.86 1.86 0 0 1 1.857-1.864 1.86 1.86 0 0 1 1.858 1.864zm14.857 0a1.86 1.86 0 0 1-1.857 1.864 1.86 1.86 0 0 1-1.858-1.864 1.86 1.86 0 0 1 1.858-1.864 1.86 1.86 0 0 1 1.857 1.864zm14.857 0a1.86 1.86 0 0 1-1.857 1.864 1.86 1.86 0 0 1-1.857-1.864 1.86 1.86 0 0 1 1.857-1.864 1.86 1.86 0 0 1 1.857 1.864zm14.857 0a1.86 1.86 0 0 1-1.857 1.864 1.86 1.86 0 0 1-1.857-1.864 1.86 1.86 0 0 1 1.857-1.864A1.86 1.86 0 0 1 70 35.604zm14.857 0A1.86 1.86 0 0 1 83 37.468a1.86 1.86 0 0 1-1.857-1.864A1.86 1.86 0 0 1 83 33.74a1.86 1.86 0 0 1 1.857 1.864zm14.857 0a1.86 1.86 0 0 1-1.857 1.864A1.86 1.86 0 0 1 96 35.604a1.86 1.86 0 0 1 1.857-1.864 1.86 1.86 0 0 1 1.857 1.864zm14.857 0a1.86 1.86 0 0 1-1.857 1.864 1.861 1.861 0 0 1-1.857-1.864 1.86 1.86 0 0 1 1.857-1.864 1.86 1.86 0 0 1 1.857 1.864zm14.858 0a1.86 1.86 0 0 1-1.858 1.864 1.861 1.861 0 0 1-1.857-1.864 1.86 1.86 0 0 1 1.857-1.864 1.86 1.86 0 0 1 1.858 1.864zm14.857 0a1.86 1.86 0 0 1-1.857 1.864 1.861 1.861 0 0 1-1.858-1.864 1.86 1.86 0 0 1 1.858-1.864 1.86 1.86 0 0 1 1.857 1.864zm14.857 0a1.86 1.86 0 0 1-1.857 1.864 1.86 1.86 0 0 1-1.857-1.864 1.86 1.86 0 0 1 1.857-1.864 1.86 1.86 0 0 1 1.857 1.864zm14.857 0a1.86 1.86 0 0 1-1.857 1.864 1.86 1.86 0 0 1-1.857-1.864 1.86 1.86 0 0 1 1.857-1.864A1.86 1.86 0 0 1 174 35.604zM-4.286 50.517a1.86 1.86 0 0 1-1.857 1.864A1.86 1.86 0 0 1-8 50.518a1.86 1.86 0 0 1 1.857-1.864 1.86 1.86 0 0 1 1.857 1.864zm14.857 0a1.86 1.86 0 0 1-1.857 1.864 1.86 1.86 0 0 1-1.857-1.864 1.86 1.86 0 0 1 1.857-1.864 1.86 1.86 0 0 1 1.857 1.864zm14.858 0a1.86 1.86 0 0 1-1.858 1.864 1.86 1.86 0 0 1-1.857-1.864 1.86 1.86 0 0 1 1.857-1.864 1.86 1.86 0 0 1 1.858 1.864zm14.857 0a1.86 1.86 0 0 1-1.857 1.864 1.86 1.86 0 0 1-1.858-1.864 1.86 1.86 0 0 1 1.858-1.864 1.86 1.86 0 0 1 1.857 1.864zm14.857 0a1.86 1.86 0 0 1-1.857 1.864 1.86 1.86 0 0 1-1.857-1.864 1.86 1.86 0 0 1 1.857-1.864 1.86 1.86 0 0 1 1.857 1.864zm14.857 0a1.86 1.86 0 0 1-1.857 1.864 1.86 1.86 0 0 1-1.857-1.864 1.86 1.86 0 0 1 1.857-1.864A1.86 1.86 0 0 1 70 50.517zm14.857 0A1.86 1.86 0 0 1 83 52.381a1.86 1.86 0 0 1-1.857-1.864A1.86 1.86 0 0 1 83 48.653a1.86 1.86 0 0 1 1.857 1.864zm14.857 0a1.86 1.86 0 0 1-1.857 1.864A1.86 1.86 0 0 1 96 50.518a1.86 1.86 0 0 1 1.857-1.864 1.86 1.86 0 0 1 1.857 1.864zm14.857 0a1.86 1.86 0 0 1-1.857 1.864 1.861 1.861 0 0 1-1.857-1.864 1.86 1.86 0 0 1 1.857-1.864 1.86 1.86 0 0 1 1.857 1.864zm14.858 0a1.86 1.86 0 0 1-1.858 1.864 1.861 1.861 0 0 1-1.857-1.864 1.86 1.86 0 0 1 1.857-1.864c1.026 0 1.858.835 1.858 1.864zm14.857 0a1.86 1.86 0 0 1-1.857 1.864 1.861 1.861 0 0 1-1.858-1.864 1.86 1.86 0 0 1 1.858-1.864 1.86 1.86 0 0 1 1.857 1.864zm14.857 0a1.86 1.86 0 0 1-1.857 1.864 1.86 1.86 0 0 1-1.857-1.864 1.86 1.86 0 0 1 1.857-1.864 1.86 1.86 0 0 1 1.857 1.864zm14.857 0a1.86 1.86 0 0 1-1.857 1.864 1.86 1.86 0 0 1-1.857-1.864 1.86 1.86 0 0 1 1.857-1.864A1.86 1.86 0 0 1 174 50.517zM-4.286 65.43a1.86 1.86 0 0 1-1.857 1.865A1.86 1.86 0 0 1-8 65.43a1.86 1.86 0 0 1 1.857-1.864 1.86 1.86 0 0 1 1.857 1.864zm14.857 0a1.86 1.86 0 0 1-1.857 1.865 1.86 1.86 0 0 1-1.857-1.864 1.86 1.86 0 0 1 1.857-1.864 1.86 1.86 0 0 1 1.857 1.864zm14.858 0a1.86 1.86 0 0 1-1.858 1.865 1.86 1.86 0 0 1-1.857-1.864 1.86 1.86 0 0 1 1.857-1.864 1.86 1.86 0 0 1 1.858 1.864zm14.857 0a1.86 1.86 0 0 1-1.857 1.865 1.86 1.86 0 0 1-1.858-1.864 1.86 1.86 0 0 1 1.858-1.864 1.86 1.86 0 0 1 1.857 1.864zm14.857 0a1.86 1.86 0 0 1-1.857 1.865 1.86 1.86 0 0 1-1.857-1.864 1.86 1.86 0 0 1 1.857-1.864 1.86 1.86 0 0 1 1.857 1.864zm14.857 0a1.86 1.86 0 0 1-1.857 1.865 1.86 1.86 0 0 1-1.857-1.864 1.86 1.86 0 0 1 1.857-1.864A1.86 1.86 0 0 1 70 65.43zm14.857 0A1.86 1.86 0 0 1 83 67.296a1.86 1.86 0 0 1-1.857-1.864A1.86 1.86 0 0 1 83 63.567a1.86 1.86 0 0 1 1.857 1.864zm14.857 0a1.86 1.86 0 0 1-1.857 1.865A1.86 1.86 0 0 1 96 65.43a1.86 1.86 0 0 1 1.857-1.864 1.86 1.86 0 0 1 1.857 1.864zm14.857 0a1.86 1.86 0 0 1-1.857 1.865 1.861 1.861 0 0 1-1.857-1.864 1.86 1.86 0 0 1 1.857-1.864 1.86 1.86 0 0 1 1.857 1.864zm14.858 0c0 1.03-.832 1.865-1.858 1.865a1.861 1.861 0 0 1-1.857-1.864 1.86 1.86 0 0 1 1.857-1.864 1.86 1.86 0 0 1 1.858 1.864zm14.857 0c0 1.03-.832 1.865-1.857 1.865a1.861 1.861 0 0 1-1.858-1.864 1.86 1.86 0 0 1 1.858-1.864 1.86 1.86 0 0 1 1.857 1.864zm14.857 0c0 1.03-.832 1.865-1.857 1.865a1.86 1.86 0 0 1-1.857-1.864 1.86 1.86 0 0 1 1.857-1.864 1.86 1.86 0 0 1 1.857 1.864zm14.857 0a1.86 1.86 0 0 1-1.857 1.865 1.86 1.86 0 0 1-1.857-1.864 1.86 1.86 0 0 1 1.857-1.864A1.86 1.86 0 0 1 174 65.43zM-4.286 80.344a1.86 1.86 0 0 1-1.857 1.864A1.86 1.86 0 0 1-8 80.344a1.86 1.86 0 0 1 1.857-1.864 1.86 1.86 0 0 1 1.857 1.864zm14.857 0a1.86 1.86 0 0 1-1.857 1.864 1.86 1.86 0 0 1-1.857-1.864 1.86 1.86 0 0 1 1.857-1.864 1.86 1.86 0 0 1 1.857 1.864zm14.858 0a1.86 1.86 0 0 1-1.858 1.864 1.86 1.86 0 0 1-1.857-1.864 1.86 1.86 0 0 1 1.857-1.864 1.86 1.86 0 0 1 1.858 1.864zm14.857 0a1.86 1.86 0 0 1-1.857 1.864 1.86 1.86 0 0 1-1.858-1.864 1.86 1.86 0 0 1 1.858-1.864 1.86 1.86 0 0 1 1.857 1.864zm14.857 0a1.86 1.86 0 0 1-1.857 1.864 1.86 1.86 0 0 1-1.857-1.864 1.86 1.86 0 0 1 1.857-1.864 1.86 1.86 0 0 1 1.857 1.864zm14.857 0a1.86 1.86 0 0 1-1.857 1.864 1.86 1.86 0 0 1-1.857-1.864 1.86 1.86 0 0 1 1.857-1.864A1.86 1.86 0 0 1 70 80.344zm14.857 0A1.86 1.86 0 0 1 83 82.208a1.86 1.86 0 0 1-1.857-1.864A1.86 1.86 0 0 1 83 78.48a1.86 1.86 0 0 1 1.857 1.864zm14.857 0a1.86 1.86 0 0 1-1.857 1.864A1.86 1.86 0 0 1 96 80.344a1.86 1.86 0 0 1 1.857-1.864 1.86 1.86 0 0 1 1.857 1.864zm14.857 0a1.86 1.86 0 0 1-1.857 1.864 1.861 1.861 0 0 1-1.857-1.864 1.86 1.86 0 0 1 1.857-1.864 1.86 1.86 0 0 1 1.857 1.864zm14.858 0a1.86 1.86 0 0 1-1.858 1.864 1.861 1.861 0 0 1-1.857-1.864 1.86 1.86 0 0 1 1.857-1.864 1.86 1.86 0 0 1 1.858 1.864zm14.857 0a1.86 1.86 0 0 1-1.857 1.864 1.861 1.861 0 0 1-1.858-1.864 1.86 1.86 0 0 1 1.858-1.864 1.86 1.86 0 0 1 1.857 1.864zm14.857 0a1.86 1.86 0 0 1-1.857 1.864 1.86 1.86 0 0 1-1.857-1.864 1.86 1.86 0 0 1 1.857-1.864 1.86 1.86 0 0 1 1.857 1.864zm14.857 0a1.86 1.86 0 0 1-1.857 1.864 1.86 1.86 0 0 1-1.857-1.864 1.86 1.86 0 0 1 1.857-1.864A1.86 1.86 0 0 1 174 80.344zM-4.286 95.257a1.86 1.86 0 0 1-1.857 1.864A1.86 1.86 0 0 1-8 95.257a1.86 1.86 0 0 1 1.857-1.864 1.86 1.86 0 0 1 1.857 1.864zm14.857 0a1.86 1.86 0 0 1-1.857 1.864 1.86 1.86 0 0 1-1.857-1.864 1.86 1.86 0 0 1 1.857-1.864 1.86 1.86 0 0 1 1.857 1.864zm14.858 0a1.86 1.86 0 0 1-1.858 1.864 1.86 1.86 0 0 1-1.857-1.864 1.86 1.86 0 0 1 1.857-1.864 1.86 1.86 0 0 1 1.858 1.864zm14.857 0a1.86 1.86 0 0 1-1.857 1.864 1.86 1.86 0 0 1-1.858-1.864 1.86 1.86 0 0 1 1.858-1.864 1.86 1.86 0 0 1 1.857 1.864zm14.857 0a1.86 1.86 0 0 1-1.857 1.864 1.86 1.86 0 0 1-1.857-1.864 1.86 1.86 0 0 1 1.857-1.864 1.86 1.86 0 0 1 1.857 1.864zm14.857 0a1.86 1.86 0 0 1-1.857 1.864 1.86 1.86 0 0 1-1.857-1.864 1.86 1.86 0 0 1 1.857-1.864A1.86 1.86 0 0 1 70 95.257zm14.857 0A1.86 1.86 0 0 1 83 97.121a1.86 1.86 0 0 1-1.857-1.864A1.86 1.86 0 0 1 83 93.393a1.86 1.86 0 0 1 1.857 1.864zm14.857 0a1.86 1.86 0 0 1-1.857 1.864A1.86 1.86 0 0 1 96 95.257a1.86 1.86 0 0 1 1.857-1.864 1.86 1.86 0 0 1 1.857 1.864zm14.857 0a1.86 1.86 0 0 1-1.857 1.864 1.861 1.861 0 0 1-1.857-1.864 1.86 1.86 0 0 1 1.857-1.864 1.86 1.86 0 0 1 1.857 1.864zm14.858 0a1.86 1.86 0 0 1-1.858 1.864 1.861 1.861 0 0 1-1.857-1.864 1.86 1.86 0 0 1 1.857-1.864c1.026 0 1.858.835 1.858 1.864zm14.857 0a1.86 1.86 0 0 1-1.857 1.864 1.861 1.861 0 0 1-1.858-1.864 1.86 1.86 0 0 1 1.858-1.864 1.86 1.86 0 0 1 1.857 1.864zm14.857 0a1.86 1.86 0 0 1-1.857 1.864 1.86 1.86 0 0 1-1.857-1.864 1.86 1.86 0 0 1 1.857-1.864 1.86 1.86 0 0 1 1.857 1.864zm14.857 0a1.86 1.86 0 0 1-1.857 1.864 1.86 1.86 0 0 1-1.857-1.864 1.86 1.86 0 0 1 1.857-1.864A1.86 1.86 0 0 1 174 95.257zM-4.286 110.171a1.86 1.86 0 0 1-1.857 1.864A1.86 1.86 0 0 1-8 110.171c0-1.03.831-1.865 1.857-1.865s1.857.835 1.857 1.865zm14.857 0a1.86 1.86 0 0 1-1.857 1.864 1.86 1.86 0 0 1-1.857-1.864c0-1.03.832-1.865 1.857-1.865a1.86 1.86 0 0 1 1.857 1.865zm14.858 0a1.86 1.86 0 0 1-1.858 1.864 1.86 1.86 0 0 1-1.857-1.864c0-1.03.832-1.865 1.857-1.865 1.026 0 1.858.835 1.858 1.865zm14.857 0a1.86 1.86 0 0 1-1.857 1.864 1.86 1.86 0 0 1-1.858-1.864c0-1.03.832-1.865 1.858-1.865 1.025 0 1.857.835 1.857 1.865zm14.857 0a1.86 1.86 0 0 1-1.857 1.864 1.86 1.86 0 0 1-1.857-1.864 1.86 1.86 0 0 1 1.857-1.865c1.025 0 1.857.835 1.857 1.865zm14.857 0a1.86 1.86 0 0 1-1.857 1.864 1.86 1.86 0 0 1-1.857-1.864 1.86 1.86 0 0 1 1.857-1.865c1.025 0 1.857.835 1.857 1.865zm14.857 0A1.86 1.86 0 0 1 83 112.035a1.86 1.86 0 0 1-1.857-1.864c0-1.03.831-1.865 1.857-1.865s1.857.835 1.857 1.865zm14.857 0a1.86 1.86 0 0 1-1.857 1.864A1.86 1.86 0 0 1 96 110.171c0-1.03.832-1.865 1.857-1.865a1.86 1.86 0 0 1 1.857 1.865zm14.857 0a1.86 1.86 0 0 1-1.857 1.864 1.861 1.861 0 0 1-1.857-1.864c0-1.03.832-1.865 1.857-1.865a1.86 1.86 0 0 1 1.857 1.865zm14.858 0a1.861 1.861 0 0 1-1.858 1.864 1.861 1.861 0 0 1-1.857-1.864c0-1.03.832-1.865 1.857-1.865 1.026 0 1.858.835 1.858 1.865zm14.857 0a1.861 1.861 0 0 1-1.857 1.864 1.861 1.861 0 0 1-1.858-1.864c0-1.03.832-1.865 1.858-1.865 1.025 0 1.857.835 1.857 1.865zm14.857 0a1.861 1.861 0 0 1-1.857 1.864 1.86 1.86 0 0 1-1.857-1.864 1.86 1.86 0 0 1 1.857-1.865c1.025 0 1.857.835 1.857 1.865zm14.857 0a1.86 1.86 0 0 1-1.857 1.864 1.86 1.86 0 0 1-1.857-1.864 1.86 1.86 0 0 1 1.857-1.865 1.86 1.86 0 0 1 1.857 1.865zM-4.286 125.084a1.86 1.86 0 0 1-1.857 1.864A1.86 1.86 0 0 1-8 125.084a1.86 1.86 0 0 1 1.857-1.864 1.86 1.86 0 0 1 1.857 1.864zm14.857 0a1.86 1.86 0 0 1-1.857 1.864 1.86 1.86 0 0 1-1.857-1.864 1.86 1.86 0 0 1 1.857-1.864 1.86 1.86 0 0 1 1.857 1.864zm14.858 0a1.86 1.86 0 0 1-1.858 1.864 1.86 1.86 0 0 1-1.857-1.864 1.86 1.86 0 0 1 1.857-1.864 1.86 1.86 0 0 1 1.858 1.864zm14.857 0a1.86 1.86 0 0 1-1.857 1.864 1.86 1.86 0 0 1-1.858-1.864 1.86 1.86 0 0 1 1.858-1.864 1.86 1.86 0 0 1 1.857 1.864zm14.857 0a1.86 1.86 0 0 1-1.857 1.864 1.86 1.86 0 0 1-1.857-1.864 1.86 1.86 0 0 1 1.857-1.864 1.86 1.86 0 0 1 1.857 1.864zm14.857 0a1.86 1.86 0 0 1-1.857 1.864 1.86 1.86 0 0 1-1.857-1.864 1.86 1.86 0 0 1 1.857-1.864A1.86 1.86 0 0 1 70 125.084zm14.857 0A1.86 1.86 0 0 1 83 126.948a1.86 1.86 0 0 1-1.857-1.864A1.86 1.86 0 0 1 83 123.22a1.86 1.86 0 0 1 1.857 1.864zm14.857 0a1.86 1.86 0 0 1-1.857 1.864A1.86 1.86 0 0 1 96 125.084a1.86 1.86 0 0 1 1.857-1.864 1.86 1.86 0 0 1 1.857 1.864zm14.857 0a1.86 1.86 0 0 1-1.857 1.864 1.861 1.861 0 0 1-1.857-1.864 1.86 1.86 0 0 1 1.857-1.864 1.86 1.86 0 0 1 1.857 1.864zm14.858 0a1.861 1.861 0 0 1-1.858 1.864 1.861 1.861 0 0 1-1.857-1.864 1.86 1.86 0 0 1 1.857-1.864 1.86 1.86 0 0 1 1.858 1.864zm14.857 0a1.861 1.861 0 0 1-1.857 1.864 1.861 1.861 0 0 1-1.858-1.864 1.86 1.86 0 0 1 1.858-1.864 1.86 1.86 0 0 1 1.857 1.864zm14.857 0a1.861 1.861 0 0 1-1.857 1.864 1.86 1.86 0 0 1-1.857-1.864 1.86 1.86 0 0 1 1.857-1.864 1.86 1.86 0 0 1 1.857 1.864zm14.857 0a1.86 1.86 0 0 1-1.857 1.864 1.86 1.86 0 0 1-1.857-1.864 1.86 1.86 0 0 1 1.857-1.864 1.86 1.86 0 0 1 1.857 1.864zM-4.286 139.997a1.86 1.86 0 0 1-1.857 1.864A1.86 1.86 0 0 1-8 139.997a1.86 1.86 0 0 1 1.857-1.864 1.86 1.86 0 0 1 1.857 1.864zm14.857 0a1.86 1.86 0 0 1-1.857 1.864 1.86 1.86 0 0 1-1.857-1.864 1.86 1.86 0 0 1 1.857-1.864 1.86 1.86 0 0 1 1.857 1.864zm14.858 0a1.86 1.86 0 0 1-1.858 1.864 1.86 1.86 0 0 1-1.857-1.864 1.86 1.86 0 0 1 1.857-1.864 1.86 1.86 0 0 1 1.858 1.864zm14.857 0a1.86 1.86 0 0 1-1.857 1.864 1.86 1.86 0 0 1-1.858-1.864 1.86 1.86 0 0 1 1.858-1.864 1.86 1.86 0 0 1 1.857 1.864zm14.857 0a1.86 1.86 0 0 1-1.857 1.864 1.86 1.86 0 0 1-1.857-1.864 1.86 1.86 0 0 1 1.857-1.864 1.86 1.86 0 0 1 1.857 1.864zm14.857 0a1.86 1.86 0 0 1-1.857 1.864 1.86 1.86 0 0 1-1.857-1.864 1.86 1.86 0 0 1 1.857-1.864A1.86 1.86 0 0 1 70 139.997zm14.857 0A1.86 1.86 0 0 1 83 141.861a1.86 1.86 0 0 1-1.857-1.864A1.86 1.86 0 0 1 83 138.133a1.86 1.86 0 0 1 1.857 1.864zm14.857 0a1.86 1.86 0 0 1-1.857 1.864A1.86 1.86 0 0 1 96 139.997a1.86 1.86 0 0 1 1.857-1.864 1.86 1.86 0 0 1 1.857 1.864zm14.857 0a1.86 1.86 0 0 1-1.857 1.864 1.86 1.86 0 0 1-1.857-1.864c0-1.029.832-1.864 1.857-1.864a1.86 1.86 0 0 1 1.857 1.864zm14.858 0a1.86 1.86 0 0 1-1.858 1.864 1.86 1.86 0 0 1-1.857-1.864c0-1.029.832-1.864 1.857-1.864 1.026 0 1.858.835 1.858 1.864zm14.857 0a1.86 1.86 0 0 1-1.857 1.864 1.86 1.86 0 0 1-1.858-1.864c0-1.029.832-1.864 1.858-1.864 1.025 0 1.857.835 1.857 1.864zm14.857 0a1.86 1.86 0 0 1-1.857 1.864 1.86 1.86 0 0 1-1.857-1.864 1.86 1.86 0 0 1 1.857-1.864c1.025 0 1.857.835 1.857 1.864zm14.857 0a1.86 1.86 0 0 1-1.857 1.864 1.86 1.86 0 0 1-1.857-1.864 1.86 1.86 0 0 1 1.857-1.864 1.86 1.86 0 0 1 1.857 1.864zM-4.286 154.91a1.86 1.86 0 0 1-1.857 1.865A1.861 1.861 0 0 1-8 154.91a1.86 1.86 0 0 1 1.857-1.864 1.86 1.86 0 0 1 1.857 1.864zm14.857 0a1.86 1.86 0 0 1-1.857 1.865 1.861 1.861 0 0 1-1.857-1.865 1.86 1.86 0 0 1 1.857-1.864 1.86 1.86 0 0 1 1.857 1.864zm14.858 0c0 1.03-.832 1.865-1.858 1.865a1.861 1.861 0 0 1-1.857-1.865 1.86 1.86 0 0 1 1.857-1.864 1.86 1.86 0 0 1 1.858 1.864zm14.857 0c0 1.03-.832 1.865-1.857 1.865a1.861 1.861 0 0 1-1.858-1.865 1.86 1.86 0 0 1 1.858-1.864 1.86 1.86 0 0 1 1.857 1.864zm14.857 0c0 1.03-.832 1.865-1.857 1.865a1.861 1.861 0 0 1-1.857-1.865 1.86 1.86 0 0 1 1.857-1.864 1.86 1.86 0 0 1 1.857 1.864zm14.857 0c0 1.03-.832 1.865-1.857 1.865a1.861 1.861 0 0 1-1.857-1.865 1.86 1.86 0 0 1 1.857-1.864A1.86 1.86 0 0 1 70 154.91zm14.857 0A1.86 1.86 0 0 1 83 156.775a1.861 1.861 0 0 1-1.857-1.865A1.86 1.86 0 0 1 83 153.046a1.86 1.86 0 0 1 1.857 1.864zm14.857 0a1.86 1.86 0 0 1-1.857 1.865A1.861 1.861 0 0 1 96 154.91a1.86 1.86 0 0 1 1.857-1.864 1.86 1.86 0 0 1 1.857 1.864zm14.857 0a1.86 1.86 0 0 1-1.857 1.865 1.861 1.861 0 0 1-1.857-1.865c0-1.029.832-1.864 1.857-1.864a1.86 1.86 0 0 1 1.857 1.864zm14.858 0c0 1.03-.832 1.865-1.858 1.865a1.861 1.861 0 0 1-1.857-1.865c0-1.029.832-1.864 1.857-1.864 1.026 0 1.858.835 1.858 1.864zm14.857 0c0 1.03-.832 1.865-1.857 1.865a1.862 1.862 0 0 1-1.858-1.865c0-1.029.832-1.864 1.858-1.864 1.025 0 1.857.835 1.857 1.864zm14.857 0c0 1.03-.832 1.865-1.857 1.865a1.86 1.86 0 0 1-1.857-1.865 1.86 1.86 0 0 1 1.857-1.864c1.025 0 1.857.835 1.857 1.864zm14.857 0a1.86 1.86 0 0 1-1.857 1.865 1.86 1.86 0 0 1-1.857-1.865 1.86 1.86 0 0 1 1.857-1.864A1.86 1.86 0 0 1 174 154.91zM-4.286 169.824a1.86 1.86 0 0 1-1.857 1.864A1.86 1.86 0 0 1-8 169.824a1.86 1.86 0 0 1 1.857-1.864 1.86 1.86 0 0 1 1.857 1.864zm14.857 0a1.86 1.86 0 0 1-1.857 1.864 1.86 1.86 0 0 1-1.857-1.864 1.86 1.86 0 0 1 1.857-1.864 1.86 1.86 0 0 1 1.857 1.864zm14.858 0a1.86 1.86 0 0 1-1.858 1.864 1.86 1.86 0 0 1-1.857-1.864 1.86 1.86 0 0 1 1.857-1.864 1.86 1.86 0 0 1 1.858 1.864zm14.857 0a1.86 1.86 0 0 1-1.857 1.864 1.86 1.86 0 0 1-1.858-1.864 1.86 1.86 0 0 1 1.858-1.864 1.86 1.86 0 0 1 1.857 1.864zm14.857 0a1.86 1.86 0 0 1-1.857 1.864 1.86 1.86 0 0 1-1.857-1.864 1.86 1.86 0 0 1 1.857-1.864 1.86 1.86 0 0 1 1.857 1.864zm14.857 0a1.86 1.86 0 0 1-1.857 1.864 1.86 1.86 0 0 1-1.857-1.864 1.86 1.86 0 0 1 1.857-1.864A1.86 1.86 0 0 1 70 169.824zm14.857 0A1.86 1.86 0 0 1 83 171.688a1.86 1.86 0 0 1-1.857-1.864A1.86 1.86 0 0 1 83 167.96a1.86 1.86 0 0 1 1.857 1.864zm14.857 0a1.86 1.86 0 0 1-1.857 1.864A1.86 1.86 0 0 1 96 169.824a1.86 1.86 0 0 1 1.857-1.864 1.86 1.86 0 0 1 1.857 1.864zm14.857 0a1.86 1.86 0 0 1-1.857 1.864 1.861 1.861 0 0 1-1.857-1.864 1.86 1.86 0 0 1 1.857-1.864 1.86 1.86 0 0 1 1.857 1.864zm14.858 0a1.861 1.861 0 0 1-1.858 1.864 1.861 1.861 0 0 1-1.857-1.864 1.86 1.86 0 0 1 1.857-1.864 1.86 1.86 0 0 1 1.858 1.864zm14.857 0a1.861 1.861 0 0 1-1.857 1.864 1.861 1.861 0 0 1-1.858-1.864 1.86 1.86 0 0 1 1.858-1.864 1.86 1.86 0 0 1 1.857 1.864zm14.857 0a1.861 1.861 0 0 1-1.857 1.864 1.86 1.86 0 0 1-1.857-1.864 1.86 1.86 0 0 1 1.857-1.864 1.86 1.86 0 0 1 1.857 1.864zm14.857 0a1.86 1.86 0 0 1-1.857 1.864 1.86 1.86 0 0 1-1.857-1.864 1.86 1.86 0 0 1 1.857-1.864 1.86 1.86 0 0 1 1.857 1.864zM-4.286 184.737a1.86 1.86 0 0 1-1.857 1.864A1.86 1.86 0 0 1-8 184.737a1.86 1.86 0 0 1 1.857-1.864 1.86 1.86 0 0 1 1.857 1.864zm14.857 0a1.86 1.86 0 0 1-1.857 1.864 1.86 1.86 0 0 1-1.857-1.864 1.86 1.86 0 0 1 1.857-1.864 1.86 1.86 0 0 1 1.857 1.864zm14.858 0a1.86 1.86 0 0 1-1.858 1.864 1.86 1.86 0 0 1-1.857-1.864 1.86 1.86 0 0 1 1.857-1.864 1.86 1.86 0 0 1 1.858 1.864zm14.857 0a1.86 1.86 0 0 1-1.857 1.864 1.86 1.86 0 0 1-1.858-1.864 1.86 1.86 0 0 1 1.858-1.864 1.86 1.86 0 0 1 1.857 1.864zm14.857 0a1.86 1.86 0 0 1-1.857 1.864 1.86 1.86 0 0 1-1.857-1.864 1.86 1.86 0 0 1 1.857-1.864 1.86 1.86 0 0 1 1.857 1.864zm14.857 0a1.86 1.86 0 0 1-1.857 1.864 1.86 1.86 0 0 1-1.857-1.864 1.86 1.86 0 0 1 1.857-1.864A1.86 1.86 0 0 1 70 184.737zm14.857 0A1.86 1.86 0 0 1 83 186.601a1.86 1.86 0 0 1-1.857-1.864A1.86 1.86 0 0 1 83 182.873a1.86 1.86 0 0 1 1.857 1.864zm14.857 0a1.86 1.86 0 0 1-1.857 1.864A1.86 1.86 0 0 1 96 184.737a1.86 1.86 0 0 1 1.857-1.864 1.86 1.86 0 0 1 1.857 1.864zm14.857 0a1.86 1.86 0 0 1-1.857 1.864 1.86 1.86 0 0 1-1.857-1.864 1.86 1.86 0 0 1 1.857-1.864 1.86 1.86 0 0 1 1.857 1.864zm14.858 0a1.86 1.86 0 0 1-1.858 1.864 1.86 1.86 0 0 1-1.857-1.864 1.86 1.86 0 0 1 1.857-1.864 1.86 1.86 0 0 1 1.858 1.864zm14.857 0a1.86 1.86 0 0 1-1.857 1.864 1.86 1.86 0 0 1-1.858-1.864 1.86 1.86 0 0 1 1.858-1.864 1.86 1.86 0 0 1 1.857 1.864zm14.857 0a1.86 1.86 0 0 1-1.857 1.864 1.86 1.86 0 0 1-1.857-1.864 1.86 1.86 0 0 1 1.857-1.864 1.86 1.86 0 0 1 1.857 1.864zm14.857 0a1.86 1.86 0 0 1-1.857 1.864 1.86 1.86 0 0 1-1.857-1.864 1.86 1.86 0 0 1 1.857-1.864 1.86 1.86 0 0 1 1.857 1.864zM-4.286 199.65a1.86 1.86 0 0 1-1.857 1.864A1.86 1.86 0 0 1-8 199.65a1.86 1.86 0 0 1 1.857-1.864 1.86 1.86 0 0 1 1.857 1.864zm14.857 0a1.86 1.86 0 0 1-1.857 1.864 1.86 1.86 0 0 1-1.857-1.864 1.86 1.86 0 0 1 1.857-1.864 1.86 1.86 0 0 1 1.857 1.864zm14.858 0a1.86 1.86 0 0 1-1.858 1.864 1.86 1.86 0 0 1-1.857-1.864 1.86 1.86 0 0 1 1.857-1.864 1.86 1.86 0 0 1 1.858 1.864zm14.857 0a1.86 1.86 0 0 1-1.857 1.864 1.86 1.86 0 0 1-1.858-1.864 1.86 1.86 0 0 1 1.858-1.864 1.86 1.86 0 0 1 1.857 1.864zm14.857 0a1.86 1.86 0 0 1-1.857 1.864 1.86 1.86 0 0 1-1.857-1.864 1.86 1.86 0 0 1 1.857-1.864 1.86 1.86 0 0 1 1.857 1.864zm14.857 0a1.86 1.86 0 0 1-1.857 1.864 1.86 1.86 0 0 1-1.857-1.864 1.86 1.86 0 0 1 1.857-1.864A1.86 1.86 0 0 1 70 199.65zm14.857 0A1.86 1.86 0 0 1 83 201.514a1.86 1.86 0 0 1-1.857-1.864A1.86 1.86 0 0 1 83 197.786a1.86 1.86 0 0 1 1.857 1.864zm14.857 0a1.86 1.86 0 0 1-1.857 1.864A1.86 1.86 0 0 1 96 199.65a1.86 1.86 0 0 1 1.857-1.864 1.86 1.86 0 0 1 1.857 1.864zm14.857 0a1.86 1.86 0 0 1-1.857 1.864 1.86 1.86 0 0 1-1.857-1.864c0-1.029.832-1.864 1.857-1.864a1.86 1.86 0 0 1 1.857 1.864zm14.858 0a1.86 1.86 0 0 1-1.858 1.864 1.86 1.86 0 0 1-1.857-1.864c0-1.029.832-1.864 1.857-1.864 1.026 0 1.858.835 1.858 1.864zm14.857 0a1.86 1.86 0 0 1-1.857 1.864 1.86 1.86 0 0 1-1.858-1.864c0-1.029.832-1.864 1.858-1.864 1.025 0 1.857.835 1.857 1.864zm14.857 0a1.86 1.86 0 0 1-1.857 1.864 1.86 1.86 0 0 1-1.857-1.864 1.86 1.86 0 0 1 1.857-1.864c1.025 0 1.857.835 1.857 1.864zm14.857 0a1.86 1.86 0 0 1-1.857 1.864 1.86 1.86 0 0 1-1.857-1.864 1.86 1.86 0 0 1 1.857-1.864A1.86 1.86 0 0 1 174 199.65zM-4.286 214.564a1.86 1.86 0 0 1-1.857 1.864A1.86 1.86 0 0 1-8 214.564c0-1.03.831-1.865 1.857-1.865s1.857.835 1.857 1.865zm14.857 0a1.86 1.86 0 0 1-1.857 1.864 1.86 1.86 0 0 1-1.857-1.864c0-1.03.832-1.865 1.857-1.865a1.86 1.86 0 0 1 1.857 1.865zm14.858 0a1.86 1.86 0 0 1-1.858 1.864 1.86 1.86 0 0 1-1.857-1.864c0-1.03.832-1.865 1.857-1.865 1.026 0 1.858.835 1.858 1.865zm14.857 0a1.86 1.86 0 0 1-1.857 1.864 1.86 1.86 0 0 1-1.858-1.864c0-1.03.832-1.865 1.858-1.865 1.025 0 1.857.835 1.857 1.865zm14.857 0a1.86 1.86 0 0 1-1.857 1.864 1.86 1.86 0 0 1-1.857-1.864 1.86 1.86 0 0 1 1.857-1.865c1.025 0 1.857.835 1.857 1.865zm14.857 0a1.86 1.86 0 0 1-1.857 1.864 1.86 1.86 0 0 1-1.857-1.864 1.86 1.86 0 0 1 1.857-1.865c1.025 0 1.857.835 1.857 1.865zm14.857 0A1.86 1.86 0 0 1 83 216.428a1.86 1.86 0 0 1-1.857-1.864c0-1.03.831-1.865 1.857-1.865s1.857.835 1.857 1.865zm14.857 0a1.86 1.86 0 0 1-1.857 1.864A1.86 1.86 0 0 1 96 214.564c0-1.03.832-1.865 1.857-1.865a1.86 1.86 0 0 1 1.857 1.865zm14.857 0a1.86 1.86 0 0 1-1.857 1.864 1.861 1.861 0 0 1-1.857-1.864c0-1.03.832-1.865 1.857-1.865a1.86 1.86 0 0 1 1.857 1.865zm14.858 0a1.861 1.861 0 0 1-1.858 1.864 1.861 1.861 0 0 1-1.857-1.864c0-1.03.832-1.865 1.857-1.865 1.026 0 1.858.835 1.858 1.865zm14.857 0a1.861 1.861 0 0 1-1.857 1.864 1.861 1.861 0 0 1-1.858-1.864c0-1.03.832-1.865 1.858-1.865 1.025 0 1.857.835 1.857 1.865zm14.857 0a1.861 1.861 0 0 1-1.857 1.864 1.86 1.86 0 0 1-1.857-1.864 1.86 1.86 0 0 1 1.857-1.865c1.025 0 1.857.835 1.857 1.865zm14.857 0a1.86 1.86 0 0 1-1.857 1.864 1.86 1.86 0 0 1-1.857-1.864 1.86 1.86 0 0 1 1.857-1.865 1.86 1.86 0 0 1 1.857 1.865zM-4.286 229.477a1.86 1.86 0 0 1-1.857 1.864A1.86 1.86 0 0 1-8 229.477a1.86 1.86 0 0 1 1.857-1.864 1.86 1.86 0 0 1 1.857 1.864zm14.857 0a1.86 1.86 0 0 1-1.857 1.864 1.86 1.86 0 0 1-1.857-1.864 1.86 1.86 0 0 1 1.857-1.864 1.86 1.86 0 0 1 1.857 1.864zm14.858 0a1.86 1.86 0 0 1-1.858 1.864 1.86 1.86 0 0 1-1.857-1.864 1.86 1.86 0 0 1 1.857-1.864 1.86 1.86 0 0 1 1.858 1.864zm14.857 0a1.86 1.86 0 0 1-1.857 1.864 1.86 1.86 0 0 1-1.858-1.864 1.86 1.86 0 0 1 1.858-1.864 1.86 1.86 0 0 1 1.857 1.864zm14.857 0a1.86 1.86 0 0 1-1.857 1.864 1.86 1.86 0 0 1-1.857-1.864 1.86 1.86 0 0 1 1.857-1.864 1.86 1.86 0 0 1 1.857 1.864zm14.857 0a1.86 1.86 0 0 1-1.857 1.864 1.86 1.86 0 0 1-1.857-1.864 1.86 1.86 0 0 1 1.857-1.864A1.86 1.86 0 0 1 70 229.477zm14.857 0A1.86 1.86 0 0 1 83 231.341a1.86 1.86 0 0 1-1.857-1.864A1.86 1.86 0 0 1 83 227.613a1.86 1.86 0 0 1 1.857 1.864zm14.857 0a1.86 1.86 0 0 1-1.857 1.864A1.86 1.86 0 0 1 96 229.477a1.86 1.86 0 0 1 1.857-1.864 1.86 1.86 0 0 1 1.857 1.864zm14.857 0a1.86 1.86 0 0 1-1.857 1.864 1.861 1.861 0 0 1-1.857-1.864 1.86 1.86 0 0 1 1.857-1.864 1.86 1.86 0 0 1 1.857 1.864zm14.858 0a1.861 1.861 0 0 1-1.858 1.864 1.861 1.861 0 0 1-1.857-1.864 1.86 1.86 0 0 1 1.857-1.864 1.86 1.86 0 0 1 1.858 1.864zm14.857 0a1.861 1.861 0 0 1-1.857 1.864 1.861 1.861 0 0 1-1.858-1.864 1.86 1.86 0 0 1 1.858-1.864 1.86 1.86 0 0 1 1.857 1.864zm14.857 0a1.861 1.861 0 0 1-1.857 1.864 1.86 1.86 0 0 1-1.857-1.864 1.86 1.86 0 0 1 1.857-1.864 1.86 1.86 0 0 1 1.857 1.864zm14.857 0a1.86 1.86 0 0 1-1.857 1.864 1.86 1.86 0 0 1-1.857-1.864 1.86 1.86 0 0 1 1.857-1.864 1.86 1.86 0 0 1 1.857 1.864zM-4.286 244.39a1.86 1.86 0 0 1-1.857 1.864A1.86 1.86 0 0 1-8 244.39a1.86 1.86 0 0 1 1.857-1.864 1.86 1.86 0 0 1 1.857 1.864zm14.857 0a1.86 1.86 0 0 1-1.857 1.864 1.86 1.86 0 0 1-1.857-1.864 1.86 1.86 0 0 1 1.857-1.864 1.86 1.86 0 0 1 1.857 1.864zm14.858 0a1.86 1.86 0 0 1-1.858 1.864 1.86 1.86 0 0 1-1.857-1.864 1.86 1.86 0 0 1 1.857-1.864 1.86 1.86 0 0 1 1.858 1.864zm14.857 0a1.86 1.86 0 0 1-1.857 1.864 1.86 1.86 0 0 1-1.858-1.864 1.86 1.86 0 0 1 1.858-1.864 1.86 1.86 0 0 1 1.857 1.864zm14.857 0a1.86 1.86 0 0 1-1.857 1.864 1.86 1.86 0 0 1-1.857-1.864 1.86 1.86 0 0 1 1.857-1.864 1.86 1.86 0 0 1 1.857 1.864zm14.857 0a1.86 1.86 0 0 1-1.857 1.864 1.86 1.86 0 0 1-1.857-1.864 1.86 1.86 0 0 1 1.857-1.864A1.86 1.86 0 0 1 70 244.39zm14.857 0A1.86 1.86 0 0 1 83 246.254a1.86 1.86 0 0 1-1.857-1.864A1.86 1.86 0 0 1 83 242.526a1.86 1.86 0 0 1 1.857 1.864zm14.857 0a1.86 1.86 0 0 1-1.857 1.864A1.86 1.86 0 0 1 96 244.39a1.86 1.86 0 0 1 1.857-1.864 1.86 1.86 0 0 1 1.857 1.864zm14.857 0a1.86 1.86 0 0 1-1.857 1.864 1.86 1.86 0 0 1-1.857-1.864c0-1.029.832-1.864 1.857-1.864a1.86 1.86 0 0 1 1.857 1.864zm14.858 0a1.86 1.86 0 0 1-1.858 1.864 1.86 1.86 0 0 1-1.857-1.864c0-1.029.832-1.864 1.857-1.864 1.026 0 1.858.835 1.858 1.864zm14.857 0a1.86 1.86 0 0 1-1.857 1.864 1.86 1.86 0 0 1-1.858-1.864c0-1.029.832-1.864 1.858-1.864 1.025 0 1.857.835 1.857 1.864zm14.857 0a1.86 1.86 0 0 1-1.857 1.864 1.86 1.86 0 0 1-1.857-1.864 1.86 1.86 0 0 1 1.857-1.864c1.025 0 1.857.835 1.857 1.864zm14.857 0a1.86 1.86 0 0 1-1.857 1.864 1.86 1.86 0 0 1-1.857-1.864 1.86 1.86 0 0 1 1.857-1.864A1.86 1.86 0 0 1 174 244.39zM-4.286 259.303a1.86 1.86 0 0 1-1.857 1.865A1.861 1.861 0 0 1-8 259.303a1.86 1.86 0 0 1 1.857-1.864 1.86 1.86 0 0 1 1.857 1.864zm14.857 0a1.86 1.86 0 0 1-1.857 1.865 1.861 1.861 0 0 1-1.857-1.865 1.86 1.86 0 0 1 1.857-1.864 1.86 1.86 0 0 1 1.857 1.864zm14.858 0c0 1.03-.832 1.865-1.858 1.865a1.861 1.861 0 0 1-1.857-1.865 1.86 1.86 0 0 1 1.857-1.864 1.86 1.86 0 0 1 1.858 1.864zm14.857 0c0 1.03-.832 1.865-1.857 1.865a1.861 1.861 0 0 1-1.858-1.865 1.86 1.86 0 0 1 1.858-1.864 1.86 1.86 0 0 1 1.857 1.864zm14.857 0c0 1.03-.832 1.865-1.857 1.865a1.861 1.861 0 0 1-1.857-1.865 1.86 1.86 0 0 1 1.857-1.864 1.86 1.86 0 0 1 1.857 1.864zm14.857 0c0 1.03-.832 1.865-1.857 1.865a1.861 1.861 0 0 1-1.857-1.865 1.86 1.86 0 0 1 1.857-1.864A1.86 1.86 0 0 1 70 259.303zm14.857 0A1.86 1.86 0 0 1 83 261.168a1.861 1.861 0 0 1-1.857-1.865A1.86 1.86 0 0 1 83 257.439a1.86 1.86 0 0 1 1.857 1.864zm14.857 0a1.86 1.86 0 0 1-1.857 1.865A1.861 1.861 0 0 1 96 259.303a1.86 1.86 0 0 1 1.857-1.864 1.86 1.86 0 0 1 1.857 1.864zm14.857 0a1.86 1.86 0 0 1-1.857 1.865 1.861 1.861 0 0 1-1.857-1.865c0-1.029.832-1.864 1.857-1.864a1.86 1.86 0 0 1 1.857 1.864zm14.858 0c0 1.03-.832 1.865-1.858 1.865a1.861 1.861 0 0 1-1.857-1.865c0-1.029.832-1.864 1.857-1.864 1.026 0 1.858.835 1.858 1.864zm14.857 0c0 1.03-.832 1.865-1.857 1.865a1.862 1.862 0 0 1-1.858-1.865c0-1.029.832-1.864 1.858-1.864 1.025 0 1.857.835 1.857 1.864zm14.857 0c0 1.03-.832 1.865-1.857 1.865a1.86 1.86 0 0 1-1.857-1.865 1.86 1.86 0 0 1 1.857-1.864c1.025 0 1.857.835 1.857 1.864zm14.857 0a1.86 1.86 0 0 1-1.857 1.865 1.86 1.86 0 0 1-1.857-1.865 1.86 1.86 0 0 1 1.857-1.864 1.86 1.86 0 0 1 1.857 1.864zM-4.286 274.217a1.86 1.86 0 0 1-1.857 1.864A1.86 1.86 0 0 1-8 274.217a1.86 1.86 0 0 1 1.857-1.864 1.86 1.86 0 0 1 1.857 1.864zm14.857 0a1.86 1.86 0 0 1-1.857 1.864 1.86 1.86 0 0 1-1.857-1.864 1.86 1.86 0 0 1 1.857-1.864 1.86 1.86 0 0 1 1.857 1.864zm14.858 0a1.86 1.86 0 0 1-1.858 1.864 1.86 1.86 0 0 1-1.857-1.864 1.86 1.86 0 0 1 1.857-1.864 1.86 1.86 0 0 1 1.858 1.864zm14.857 0a1.86 1.86 0 0 1-1.857 1.864 1.86 1.86 0 0 1-1.858-1.864 1.86 1.86 0 0 1 1.858-1.864 1.86 1.86 0 0 1 1.857 1.864zm14.857 0a1.86 1.86 0 0 1-1.857 1.864 1.86 1.86 0 0 1-1.857-1.864 1.86 1.86 0 0 1 1.857-1.864 1.86 1.86 0 0 1 1.857 1.864zm14.857 0a1.86 1.86 0 0 1-1.857 1.864 1.86 1.86 0 0 1-1.857-1.864 1.86 1.86 0 0 1 1.857-1.864A1.86 1.86 0 0 1 70 274.217zm14.857 0A1.86 1.86 0 0 1 83 276.081a1.86 1.86 0 0 1-1.857-1.864A1.86 1.86 0 0 1 83 272.353a1.86 1.86 0 0 1 1.857 1.864zm14.857 0a1.86 1.86 0 0 1-1.857 1.864A1.86 1.86 0 0 1 96 274.217a1.86 1.86 0 0 1 1.857-1.864 1.86 1.86 0 0 1 1.857 1.864zm14.857 0a1.86 1.86 0 0 1-1.857 1.864 1.861 1.861 0 0 1-1.857-1.864 1.86 1.86 0 0 1 1.857-1.864 1.86 1.86 0 0 1 1.857 1.864zm14.858 0a1.861 1.861 0 0 1-1.858 1.864 1.861 1.861 0 0 1-1.857-1.864 1.86 1.86 0 0 1 1.857-1.864 1.86 1.86 0 0 1 1.858 1.864zm14.857 0a1.861 1.861 0 0 1-1.857 1.864 1.861 1.861 0 0 1-1.858-1.864 1.86 1.86 0 0 1 1.858-1.864 1.86 1.86 0 0 1 1.857 1.864zm14.857 0a1.861 1.861 0 0 1-1.857 1.864 1.86 1.86 0 0 1-1.857-1.864 1.86 1.86 0 0 1 1.857-1.864 1.86 1.86 0 0 1 1.857 1.864zm14.857 0a1.86 1.86 0 0 1-1.857 1.864 1.86 1.86 0 0 1-1.857-1.864 1.86 1.86 0 0 1 1.857-1.864 1.86 1.86 0 0 1 1.857 1.864zM-4.286 289.13a1.86 1.86 0 0 1-1.857 1.864A1.86 1.86 0 0 1-8 289.13a1.86 1.86 0 0 1 1.857-1.864 1.86 1.86 0 0 1 1.857 1.864zm14.857 0a1.86 1.86 0 0 1-1.857 1.864 1.86 1.86 0 0 1-1.857-1.864 1.86 1.86 0 0 1 1.857-1.864 1.86 1.86 0 0 1 1.857 1.864zm14.858 0a1.86 1.86 0 0 1-1.858 1.864 1.86 1.86 0 0 1-1.857-1.864 1.86 1.86 0 0 1 1.857-1.864 1.86 1.86 0 0 1 1.858 1.864zm14.857 0a1.86 1.86 0 0 1-1.857 1.864 1.86 1.86 0 0 1-1.858-1.864 1.86 1.86 0 0 1 1.858-1.864 1.86 1.86 0 0 1 1.857 1.864zm14.857 0a1.86 1.86 0 0 1-1.857 1.864 1.86 1.86 0 0 1-1.857-1.864 1.86 1.86 0 0 1 1.857-1.864 1.86 1.86 0 0 1 1.857 1.864zm14.857 0a1.86 1.86 0 0 1-1.857 1.864 1.86 1.86 0 0 1-1.857-1.864 1.86 1.86 0 0 1 1.857-1.864A1.86 1.86 0 0 1 70 289.13zm14.857 0A1.86 1.86 0 0 1 83 290.994a1.86 1.86 0 0 1-1.857-1.864A1.86 1.86 0 0 1 83 287.266a1.86 1.86 0 0 1 1.857 1.864zm14.857 0a1.86 1.86 0 0 1-1.857 1.864A1.86 1.86 0 0 1 96 289.13a1.86 1.86 0 0 1 1.857-1.864 1.86 1.86 0 0 1 1.857 1.864zm14.857 0a1.86 1.86 0 0 1-1.857 1.864 1.86 1.86 0 0 1-1.857-1.864 1.86 1.86 0 0 1 1.857-1.864 1.86 1.86 0 0 1 1.857 1.864zm14.858 0a1.86 1.86 0 0 1-1.858 1.864 1.86 1.86 0 0 1-1.857-1.864 1.86 1.86 0 0 1 1.857-1.864 1.86 1.86 0 0 1 1.858 1.864zm14.857 0a1.86 1.86 0 0 1-1.857 1.864 1.86 1.86 0 0 1-1.858-1.864 1.86 1.86 0 0 1 1.858-1.864 1.86 1.86 0 0 1 1.857 1.864zm14.857 0a1.86 1.86 0 0 1-1.857 1.864 1.86 1.86 0 0 1-1.857-1.864 1.86 1.86 0 0 1 1.857-1.864 1.86 1.86 0 0 1 1.857 1.864zm14.857 0a1.86 1.86 0 0 1-1.857 1.864 1.86 1.86 0 0 1-1.857-1.864 1.86 1.86 0 0 1 1.857-1.864A1.86 1.86 0 0 1 174 289.13zM-4.286 304.043a1.86 1.86 0 0 1-1.857 1.865A1.861 1.861 0 0 1-8 304.043a1.86 1.86 0 0 1 1.857-1.864 1.86 1.86 0 0 1 1.857 1.864zm14.857 0a1.86 1.86 0 0 1-1.857 1.865 1.861 1.861 0 0 1-1.857-1.865 1.86 1.86 0 0 1 1.857-1.864 1.86 1.86 0 0 1 1.857 1.864zm14.858 0c0 1.03-.832 1.865-1.858 1.865a1.861 1.861 0 0 1-1.857-1.865 1.86 1.86 0 0 1 1.857-1.864 1.86 1.86 0 0 1 1.858 1.864zm14.857 0c0 1.03-.832 1.865-1.857 1.865a1.861 1.861 0 0 1-1.858-1.865 1.86 1.86 0 0 1 1.858-1.864 1.86 1.86 0 0 1 1.857 1.864zm14.857 0c0 1.03-.832 1.865-1.857 1.865a1.861 1.861 0 0 1-1.857-1.865 1.86 1.86 0 0 1 1.857-1.864 1.86 1.86 0 0 1 1.857 1.864zm14.857 0c0 1.03-.832 1.865-1.857 1.865a1.861 1.861 0 0 1-1.857-1.865 1.86 1.86 0 0 1 1.857-1.864A1.86 1.86 0 0 1 70 304.043zm14.857 0A1.86 1.86 0 0 1 83 305.908a1.861 1.861 0 0 1-1.857-1.865A1.86 1.86 0 0 1 83 302.179a1.86 1.86 0 0 1 1.857 1.864zm14.857 0a1.86 1.86 0 0 1-1.857 1.865A1.861 1.861 0 0 1 96 304.043a1.86 1.86 0 0 1 1.857-1.864 1.86 1.86 0 0 1 1.857 1.864zm14.857 0a1.86 1.86 0 0 1-1.857 1.865 1.861 1.861 0 0 1-1.857-1.865c0-1.029.832-1.864 1.857-1.864a1.86 1.86 0 0 1 1.857 1.864zm14.858 0c0 1.03-.832 1.865-1.858 1.865a1.861 1.861 0 0 1-1.857-1.865c0-1.029.832-1.864 1.857-1.864 1.026 0 1.858.835 1.858 1.864zm14.857 0c0 1.03-.832 1.865-1.857 1.865a1.862 1.862 0 0 1-1.858-1.865c0-1.029.832-1.864 1.858-1.864 1.025 0 1.857.835 1.857 1.864zm14.857 0c0 1.03-.832 1.865-1.857 1.865a1.86 1.86 0 0 1-1.857-1.865 1.86 1.86 0 0 1 1.857-1.864c1.025 0 1.857.835 1.857 1.864zm14.857 0a1.86 1.86 0 0 1-1.857 1.865 1.86 1.86 0 0 1-1.857-1.865 1.86 1.86 0 0 1 1.857-1.864 1.86 1.86 0 0 1 1.857 1.864zM-4.286 318.957a1.86 1.86 0 0 1-1.857 1.864A1.86 1.86 0 0 1-8 318.957c0-1.03.831-1.865 1.857-1.865s1.857.835 1.857 1.865zm14.857 0a1.86 1.86 0 0 1-1.857 1.864 1.86 1.86 0 0 1-1.857-1.864c0-1.03.832-1.865 1.857-1.865a1.86 1.86 0 0 1 1.857 1.865zm14.858 0a1.86 1.86 0 0 1-1.858 1.864 1.86 1.86 0 0 1-1.857-1.864c0-1.03.832-1.865 1.857-1.865 1.026 0 1.858.835 1.858 1.865zm14.857 0a1.86 1.86 0 0 1-1.857 1.864 1.86 1.86 0 0 1-1.858-1.864c0-1.03.832-1.865 1.858-1.865 1.025 0 1.857.835 1.857 1.865zm14.857 0a1.86 1.86 0 0 1-1.857 1.864 1.86 1.86 0 0 1-1.857-1.864 1.86 1.86 0 0 1 1.857-1.865c1.025 0 1.857.835 1.857 1.865zm14.857 0a1.86 1.86 0 0 1-1.857 1.864 1.86 1.86 0 0 1-1.857-1.864 1.86 1.86 0 0 1 1.857-1.865c1.025 0 1.857.835 1.857 1.865zm14.857 0A1.86 1.86 0 0 1 83 320.821a1.86 1.86 0 0 1-1.857-1.864c0-1.03.831-1.865 1.857-1.865s1.857.835 1.857 1.865zm14.857 0a1.86 1.86 0 0 1-1.857 1.864A1.86 1.86 0 0 1 96 318.957c0-1.03.832-1.865 1.857-1.865a1.86 1.86 0 0 1 1.857 1.865zm14.857 0a1.86 1.86 0 0 1-1.857 1.864 1.861 1.861 0 0 1-1.857-1.864c0-1.03.832-1.865 1.857-1.865a1.86 1.86 0 0 1 1.857 1.865zm14.858 0a1.861 1.861 0 0 1-1.858 1.864 1.861 1.861 0 0 1-1.857-1.864c0-1.03.832-1.865 1.857-1.865 1.026 0 1.858.835 1.858 1.865zm14.857 0a1.861 1.861 0 0 1-1.857 1.864 1.861 1.861 0 0 1-1.858-1.864c0-1.03.832-1.865 1.858-1.865 1.025 0 1.857.835 1.857 1.865zm14.857 0a1.861 1.861 0 0 1-1.857 1.864 1.86 1.86 0 0 1-1.857-1.864 1.86 1.86 0 0 1 1.857-1.865c1.025 0 1.857.835 1.857 1.865zm14.857 0a1.86 1.86 0 0 1-1.857 1.864 1.86 1.86 0 0 1-1.857-1.864 1.86 1.86 0 0 1 1.857-1.865 1.86 1.86 0 0 1 1.857 1.865zM-4.286 333.87a1.86 1.86 0 0 1-1.857 1.864A1.86 1.86 0 0 1-8 333.87a1.86 1.86 0 0 1 1.857-1.864 1.86 1.86 0 0 1 1.857 1.864zm14.857 0a1.86 1.86 0 0 1-1.857 1.864 1.86 1.86 0 0 1-1.857-1.864 1.86 1.86 0 0 1 1.857-1.864 1.86 1.86 0 0 1 1.857 1.864zm14.858 0a1.86 1.86 0 0 1-1.858 1.864 1.86 1.86 0 0 1-1.857-1.864 1.86 1.86 0 0 1 1.857-1.864 1.86 1.86 0 0 1 1.858 1.864zm14.857 0a1.86 1.86 0 0 1-1.857 1.864 1.86 1.86 0 0 1-1.858-1.864 1.86 1.86 0 0 1 1.858-1.864 1.86 1.86 0 0 1 1.857 1.864zm14.857 0a1.86 1.86 0 0 1-1.857 1.864 1.86 1.86 0 0 1-1.857-1.864 1.86 1.86 0 0 1 1.857-1.864 1.86 1.86 0 0 1 1.857 1.864zm14.857 0a1.86 1.86 0 0 1-1.857 1.864 1.86 1.86 0 0 1-1.857-1.864 1.86 1.86 0 0 1 1.857-1.864A1.86 1.86 0 0 1 70 333.87zm14.857 0A1.86 1.86 0 0 1 83 335.734a1.86 1.86 0 0 1-1.857-1.864A1.86 1.86 0 0 1 83 332.006a1.86 1.86 0 0 1 1.857 1.864zm14.857 0a1.86 1.86 0 0 1-1.857 1.864A1.86 1.86 0 0 1 96 333.87a1.86 1.86 0 0 1 1.857-1.864 1.86 1.86 0 0 1 1.857 1.864zm14.857 0a1.86 1.86 0 0 1-1.857 1.864 1.861 1.861 0 0 1-1.857-1.864 1.86 1.86 0 0 1 1.857-1.864 1.86 1.86 0 0 1 1.857 1.864zm14.858 0a1.861 1.861 0 0 1-1.858 1.864 1.861 1.861 0 0 1-1.857-1.864 1.86 1.86 0 0 1 1.857-1.864 1.86 1.86 0 0 1 1.858 1.864zm14.857 0a1.861 1.861 0 0 1-1.857 1.864 1.861 1.861 0 0 1-1.858-1.864 1.86 1.86 0 0 1 1.858-1.864 1.86 1.86 0 0 1 1.857 1.864zm14.857 0a1.861 1.861 0 0 1-1.857 1.864 1.86 1.86 0 0 1-1.857-1.864 1.86 1.86 0 0 1 1.857-1.864 1.86 1.86 0 0 1 1.857 1.864zm14.857 0a1.86 1.86 0 0 1-1.857 1.864 1.86 1.86 0 0 1-1.857-1.864 1.86 1.86 0 0 1 1.857-1.864A1.86 1.86 0 0 1 174 333.87zM-4.286 348.783a1.86 1.86 0 0 1-1.857 1.864A1.86 1.86 0 0 1-8 348.783a1.86 1.86 0 0 1 1.857-1.864 1.86 1.86 0 0 1 1.857 1.864zm14.857 0a1.86 1.86 0 0 1-1.857 1.864 1.86 1.86 0 0 1-1.857-1.864 1.86 1.86 0 0 1 1.857-1.864 1.86 1.86 0 0 1 1.857 1.864zm14.858 0a1.86 1.86 0 0 1-1.858 1.864 1.86 1.86 0 0 1-1.857-1.864 1.86 1.86 0 0 1 1.857-1.864 1.86 1.86 0 0 1 1.858 1.864zm14.857 0a1.86 1.86 0 0 1-1.857 1.864 1.86 1.86 0 0 1-1.858-1.864 1.86 1.86 0 0 1 1.858-1.864 1.86 1.86 0 0 1 1.857 1.864zm14.857 0a1.86 1.86 0 0 1-1.857 1.864 1.86 1.86 0 0 1-1.857-1.864 1.86 1.86 0 0 1 1.857-1.864 1.86 1.86 0 0 1 1.857 1.864zm14.857 0a1.86 1.86 0 0 1-1.857 1.864 1.86 1.86 0 0 1-1.857-1.864 1.86 1.86 0 0 1 1.857-1.864A1.86 1.86 0 0 1 70 348.783zm14.857 0A1.86 1.86 0 0 1 83 350.647a1.86 1.86 0 0 1-1.857-1.864A1.86 1.86 0 0 1 83 346.919a1.86 1.86 0 0 1 1.857 1.864zm14.857 0a1.86 1.86 0 0 1-1.857 1.864A1.86 1.86 0 0 1 96 348.783a1.86 1.86 0 0 1 1.857-1.864 1.86 1.86 0 0 1 1.857 1.864zm14.857 0a1.86 1.86 0 0 1-1.857 1.864 1.86 1.86 0 0 1-1.857-1.864c0-1.029.832-1.864 1.857-1.864a1.86 1.86 0 0 1 1.857 1.864zm14.858 0a1.86 1.86 0 0 1-1.858 1.864 1.86 1.86 0 0 1-1.857-1.864c0-1.029.832-1.864 1.857-1.864 1.026 0 1.858.835 1.858 1.864zm14.857 0a1.86 1.86 0 0 1-1.857 1.864 1.86 1.86 0 0 1-1.858-1.864c0-1.029.832-1.864 1.858-1.864 1.025 0 1.857.835 1.857 1.864zm14.857 0a1.86 1.86 0 0 1-1.857 1.864 1.86 1.86 0 0 1-1.857-1.864 1.86 1.86 0 0 1 1.857-1.864c1.025 0 1.857.835 1.857 1.864zm14.857 0a1.86 1.86 0 0 1-1.857 1.864 1.86 1.86 0 0 1-1.857-1.864 1.86 1.86 0 0 1 1.857-1.864 1.86 1.86 0 0 1 1.857 1.864zM-4.286 363.697a1.86 1.86 0 0 1-1.857 1.864A1.86 1.86 0 0 1-8 363.697c0-1.03.831-1.865 1.857-1.865s1.857.835 1.857 1.865zm14.857 0a1.86 1.86 0 0 1-1.857 1.864 1.86 1.86 0 0 1-1.857-1.864c0-1.03.832-1.865 1.857-1.865a1.86 1.86 0 0 1 1.857 1.865zm14.858 0a1.86 1.86 0 0 1-1.858 1.864 1.86 1.86 0 0 1-1.857-1.864c0-1.03.832-1.865 1.857-1.865 1.026 0 1.858.835 1.858 1.865zm14.857 0a1.86 1.86 0 0 1-1.857 1.864 1.86 1.86 0 0 1-1.858-1.864c0-1.03.832-1.865 1.858-1.865 1.025 0 1.857.835 1.857 1.865zm14.857 0a1.86 1.86 0 0 1-1.857 1.864 1.86 1.86 0 0 1-1.857-1.864 1.86 1.86 0 0 1 1.857-1.865c1.025 0 1.857.835 1.857 1.865zm14.857 0a1.86 1.86 0 0 1-1.857 1.864 1.86 1.86 0 0 1-1.857-1.864 1.86 1.86 0 0 1 1.857-1.865c1.025 0 1.857.835 1.857 1.865zm14.857 0A1.86 1.86 0 0 1 83 365.561a1.86 1.86 0 0 1-1.857-1.864c0-1.03.831-1.865 1.857-1.865s1.857.835 1.857 1.865zm14.857 0a1.86 1.86 0 0 1-1.857 1.864A1.86 1.86 0 0 1 96 363.697c0-1.03.832-1.865 1.857-1.865a1.86 1.86 0 0 1 1.857 1.865zm14.857 0a1.86 1.86 0 0 1-1.857 1.864 1.861 1.861 0 0 1-1.857-1.864c0-1.03.832-1.865 1.857-1.865a1.86 1.86 0 0 1 1.857 1.865zm14.858 0a1.861 1.861 0 0 1-1.858 1.864 1.861 1.861 0 0 1-1.857-1.864c0-1.03.832-1.865 1.857-1.865 1.026 0 1.858.835 1.858 1.865zm14.857 0a1.861 1.861 0 0 1-1.857 1.864 1.861 1.861 0 0 1-1.858-1.864c0-1.03.832-1.865 1.858-1.865 1.025 0 1.857.835 1.857 1.865zm14.857 0a1.861 1.861 0 0 1-1.857 1.864 1.86 1.86 0 0 1-1.857-1.864 1.86 1.86 0 0 1 1.857-1.865c1.025 0 1.857.835 1.857 1.865zm14.857 0a1.86 1.86 0 0 1-1.857 1.864 1.86 1.86 0 0 1-1.857-1.864 1.86 1.86 0 0 1 1.857-1.865 1.86 1.86 0 0 1 1.857 1.865zM-4.286 378.61a1.86 1.86 0 0 1-1.857 1.864A1.86 1.86 0 0 1-8 378.61a1.86 1.86 0 0 1 1.857-1.864 1.86 1.86 0 0 1 1.857 1.864zm14.857 0a1.86 1.86 0 0 1-1.857 1.864 1.86 1.86 0 0 1-1.857-1.864 1.86 1.86 0 0 1 1.857-1.864 1.86 1.86 0 0 1 1.857 1.864zm14.858 0a1.86 1.86 0 0 1-1.858 1.864 1.86 1.86 0 0 1-1.857-1.864 1.86 1.86 0 0 1 1.857-1.864 1.86 1.86 0 0 1 1.858 1.864zm14.857 0a1.86 1.86 0 0 1-1.857 1.864 1.86 1.86 0 0 1-1.858-1.864 1.86 1.86 0 0 1 1.858-1.864 1.86 1.86 0 0 1 1.857 1.864zm14.857 0a1.86 1.86 0 0 1-1.857 1.864 1.86 1.86 0 0 1-1.857-1.864 1.86 1.86 0 0 1 1.857-1.864 1.86 1.86 0 0 1 1.857 1.864zm14.857 0a1.86 1.86 0 0 1-1.857 1.864 1.86 1.86 0 0 1-1.857-1.864 1.86 1.86 0 0 1 1.857-1.864A1.86 1.86 0 0 1 70 378.61zm14.857 0A1.86 1.86 0 0 1 83 380.474a1.86 1.86 0 0 1-1.857-1.864A1.86 1.86 0 0 1 83 376.746a1.86 1.86 0 0 1 1.857 1.864zm14.857 0a1.86 1.86 0 0 1-1.857 1.864A1.86 1.86 0 0 1 96 378.61a1.86 1.86 0 0 1 1.857-1.864 1.86 1.86 0 0 1 1.857 1.864zm14.857 0a1.86 1.86 0 0 1-1.857 1.864 1.861 1.861 0 0 1-1.857-1.864 1.86 1.86 0 0 1 1.857-1.864 1.86 1.86 0 0 1 1.857 1.864zm14.858 0a1.861 1.861 0 0 1-1.858 1.864 1.861 1.861 0 0 1-1.857-1.864 1.86 1.86 0 0 1 1.857-1.864 1.86 1.86 0 0 1 1.858 1.864zm14.857 0a1.861 1.861 0 0 1-1.857 1.864 1.861 1.861 0 0 1-1.858-1.864 1.86 1.86 0 0 1 1.858-1.864 1.86 1.86 0 0 1 1.857 1.864zm14.857 0a1.861 1.861 0 0 1-1.857 1.864 1.86 1.86 0 0 1-1.857-1.864 1.86 1.86 0 0 1 1.857-1.864 1.86 1.86 0 0 1 1.857 1.864zm14.857 0a1.86 1.86 0 0 1-1.857 1.864 1.86 1.86 0 0 1-1.857-1.864 1.86 1.86 0 0 1 1.857-1.864A1.86 1.86 0 0 1 174 378.61zM-4.286 393.523a1.86 1.86 0 0 1-1.857 1.864A1.86 1.86 0 0 1-8 393.523a1.86 1.86 0 0 1 1.857-1.864 1.86 1.86 0 0 1 1.857 1.864zm14.857 0a1.86 1.86 0 0 1-1.857 1.864 1.86 1.86 0 0 1-1.857-1.864 1.86 1.86 0 0 1 1.857-1.864 1.86 1.86 0 0 1 1.857 1.864zm14.858 0a1.86 1.86 0 0 1-1.858 1.864 1.86 1.86 0 0 1-1.857-1.864 1.86 1.86 0 0 1 1.857-1.864 1.86 1.86 0 0 1 1.858 1.864zm14.857 0a1.86 1.86 0 0 1-1.857 1.864 1.86 1.86 0 0 1-1.858-1.864 1.86 1.86 0 0 1 1.858-1.864 1.86 1.86 0 0 1 1.857 1.864zm14.857 0a1.86 1.86 0 0 1-1.857 1.864 1.86 1.86 0 0 1-1.857-1.864 1.86 1.86 0 0 1 1.857-1.864 1.86 1.86 0 0 1 1.857 1.864zm14.857 0a1.86 1.86 0 0 1-1.857 1.864 1.86 1.86 0 0 1-1.857-1.864 1.86 1.86 0 0 1 1.857-1.864A1.86 1.86 0 0 1 70 393.523zm14.857 0A1.86 1.86 0 0 1 83 395.387a1.86 1.86 0 0 1-1.857-1.864A1.86 1.86 0 0 1 83 391.659a1.86 1.86 0 0 1 1.857 1.864zm14.857 0a1.86 1.86 0 0 1-1.857 1.864A1.86 1.86 0 0 1 96 393.523a1.86 1.86 0 0 1 1.857-1.864 1.86 1.86 0 0 1 1.857 1.864zm14.857 0a1.86 1.86 0 0 1-1.857 1.864 1.86 1.86 0 0 1-1.857-1.864c0-1.029.832-1.864 1.857-1.864a1.86 1.86 0 0 1 1.857 1.864zm14.858 0a1.86 1.86 0 0 1-1.858 1.864 1.86 1.86 0 0 1-1.857-1.864c0-1.029.832-1.864 1.857-1.864 1.026 0 1.858.835 1.858 1.864zm14.857 0a1.86 1.86 0 0 1-1.857 1.864 1.86 1.86 0 0 1-1.858-1.864c0-1.029.832-1.864 1.858-1.864 1.025 0 1.857.835 1.857 1.864zm14.857 0a1.86 1.86 0 0 1-1.857 1.864 1.86 1.86 0 0 1-1.857-1.864 1.86 1.86 0 0 1 1.857-1.864c1.025 0 1.857.835 1.857 1.864zm14.857 0a1.86 1.86 0 0 1-1.857 1.864 1.86 1.86 0 0 1-1.857-1.864 1.86 1.86 0 0 1 1.857-1.864 1.86 1.86 0 0 1 1.857 1.864zM-4.286 408.436a1.86 1.86 0 0 1-1.857 1.865A1.861 1.861 0 0 1-8 408.436a1.86 1.86 0 0 1 1.857-1.864 1.86 1.86 0 0 1 1.857 1.864zm14.857 0a1.86 1.86 0 0 1-1.857 1.865 1.861 1.861 0 0 1-1.857-1.865 1.86 1.86 0 0 1 1.857-1.864 1.86 1.86 0 0 1 1.857 1.864zm14.858 0c0 1.03-.832 1.865-1.858 1.865a1.861 1.861 0 0 1-1.857-1.865 1.86 1.86 0 0 1 1.857-1.864 1.86 1.86 0 0 1 1.858 1.864zm14.857 0c0 1.03-.832 1.865-1.857 1.865a1.861 1.861 0 0 1-1.858-1.865 1.86 1.86 0 0 1 1.858-1.864 1.86 1.86 0 0 1 1.857 1.864zm14.857 0c0 1.03-.832 1.865-1.857 1.865a1.861 1.861 0 0 1-1.857-1.865 1.86 1.86 0 0 1 1.857-1.864 1.86 1.86 0 0 1 1.857 1.864zm14.857 0c0 1.03-.832 1.865-1.857 1.865a1.861 1.861 0 0 1-1.857-1.865 1.86 1.86 0 0 1 1.857-1.864A1.86 1.86 0 0 1 70 408.436zm14.857 0A1.86 1.86 0 0 1 83 410.301a1.861 1.861 0 0 1-1.857-1.865A1.86 1.86 0 0 1 83 406.572a1.86 1.86 0 0 1 1.857 1.864zm14.857 0a1.86 1.86 0 0 1-1.857 1.865A1.861 1.861 0 0 1 96 408.436a1.86 1.86 0 0 1 1.857-1.864 1.86 1.86 0 0 1 1.857 1.864zm14.857 0a1.86 1.86 0 0 1-1.857 1.865 1.861 1.861 0 0 1-1.857-1.865c0-1.029.832-1.864 1.857-1.864a1.86 1.86 0 0 1 1.857 1.864zm14.858 0c0 1.03-.832 1.865-1.858 1.865a1.861 1.861 0 0 1-1.857-1.865c0-1.029.832-1.864 1.857-1.864 1.026 0 1.858.835 1.858 1.864zm14.857 0c0 1.03-.832 1.865-1.857 1.865a1.862 1.862 0 0 1-1.858-1.865c0-1.029.832-1.864 1.858-1.864 1.025 0 1.857.835 1.857 1.864zm14.857 0c0 1.03-.832 1.865-1.857 1.865a1.86 1.86 0 0 1-1.857-1.865 1.86 1.86 0 0 1 1.857-1.864c1.025 0 1.857.835 1.857 1.864zm14.857 0a1.86 1.86 0 0 1-1.857 1.865 1.86 1.86 0 0 1-1.857-1.865 1.86 1.86 0 0 1 1.857-1.864 1.86 1.86 0 0 1 1.857 1.864zM-4.286 423.35a1.86 1.86 0 0 1-1.857 1.864A1.86 1.86 0 0 1-8 423.35a1.86 1.86 0 0 1 1.857-1.864 1.86 1.86 0 0 1 1.857 1.864zm14.857 0a1.86 1.86 0 0 1-1.857 1.864 1.86 1.86 0 0 1-1.857-1.864 1.86 1.86 0 0 1 1.857-1.864 1.86 1.86 0 0 1 1.857 1.864zm14.858 0a1.86 1.86 0 0 1-1.858 1.864 1.86 1.86 0 0 1-1.857-1.864 1.86 1.86 0 0 1 1.857-1.864 1.86 1.86 0 0 1 1.858 1.864zm14.857 0a1.86 1.86 0 0 1-1.857 1.864 1.86 1.86 0 0 1-1.858-1.864 1.86 1.86 0 0 1 1.858-1.864 1.86 1.86 0 0 1 1.857 1.864zm14.857 0a1.86 1.86 0 0 1-1.857 1.864 1.86 1.86 0 0 1-1.857-1.864 1.86 1.86 0 0 1 1.857-1.864 1.86 1.86 0 0 1 1.857 1.864zm14.857 0a1.86 1.86 0 0 1-1.857 1.864 1.86 1.86 0 0 1-1.857-1.864 1.86 1.86 0 0 1 1.857-1.864A1.86 1.86 0 0 1 70 423.35zm14.857 0A1.86 1.86 0 0 1 83 425.214a1.86 1.86 0 0 1-1.857-1.864A1.86 1.86 0 0 1 83 421.486a1.86 1.86 0 0 1 1.857 1.864zm14.857 0a1.86 1.86 0 0 1-1.857 1.864A1.86 1.86 0 0 1 96 423.35a1.86 1.86 0 0 1 1.857-1.864 1.86 1.86 0 0 1 1.857 1.864zm14.857 0a1.86 1.86 0 0 1-1.857 1.864 1.861 1.861 0 0 1-1.857-1.864 1.86 1.86 0 0 1 1.857-1.864 1.86 1.86 0 0 1 1.857 1.864zm14.858 0a1.861 1.861 0 0 1-1.858 1.864 1.861 1.861 0 0 1-1.857-1.864 1.86 1.86 0 0 1 1.857-1.864 1.86 1.86 0 0 1 1.858 1.864zm14.857 0a1.861 1.861 0 0 1-1.857 1.864 1.861 1.861 0 0 1-1.858-1.864 1.86 1.86 0 0 1 1.858-1.864 1.86 1.86 0 0 1 1.857 1.864zm14.857 0a1.861 1.861 0 0 1-1.857 1.864 1.86 1.86 0 0 1-1.857-1.864 1.86 1.86 0 0 1 1.857-1.864 1.86 1.86 0 0 1 1.857 1.864zm14.857 0a1.86 1.86 0 0 1-1.857 1.864 1.86 1.86 0 0 1-1.857-1.864 1.86 1.86 0 0 1 1.857-1.864A1.86 1.86 0 0 1 174 423.35zM-4.286 438.263a1.86 1.86 0 0 1-1.857 1.864A1.86 1.86 0 0 1-8 438.263a1.86 1.86 0 0 1 1.857-1.864 1.86 1.86 0 0 1 1.857 1.864zm14.857 0a1.86 1.86 0 0 1-1.857 1.864 1.86 1.86 0 0 1-1.857-1.864 1.86 1.86 0 0 1 1.857-1.864 1.86 1.86 0 0 1 1.857 1.864zm14.858 0a1.86 1.86 0 0 1-1.858 1.864 1.86 1.86 0 0 1-1.857-1.864 1.86 1.86 0 0 1 1.857-1.864 1.86 1.86 0 0 1 1.858 1.864zm14.857 0a1.86 1.86 0 0 1-1.857 1.864 1.86 1.86 0 0 1-1.858-1.864 1.86 1.86 0 0 1 1.858-1.864 1.86 1.86 0 0 1 1.857 1.864zm14.857 0a1.86 1.86 0 0 1-1.857 1.864 1.86 1.86 0 0 1-1.857-1.864 1.86 1.86 0 0 1 1.857-1.864 1.86 1.86 0 0 1 1.857 1.864zm14.857 0a1.86 1.86 0 0 1-1.857 1.864 1.86 1.86 0 0 1-1.857-1.864 1.86 1.86 0 0 1 1.857-1.864A1.86 1.86 0 0 1 70 438.263zm14.857 0A1.86 1.86 0 0 1 83 440.127a1.86 1.86 0 0 1-1.857-1.864A1.86 1.86 0 0 1 83 436.399a1.86 1.86 0 0 1 1.857 1.864zm14.857 0a1.86 1.86 0 0 1-1.857 1.864A1.86 1.86 0 0 1 96 438.263a1.86 1.86 0 0 1 1.857-1.864 1.86 1.86 0 0 1 1.857 1.864zm14.857 0a1.86 1.86 0 0 1-1.857 1.864 1.86 1.86 0 0 1-1.857-1.864 1.86 1.86 0 0 1 1.857-1.864 1.86 1.86 0 0 1 1.857 1.864zm14.858 0a1.86 1.86 0 0 1-1.858 1.864 1.86 1.86 0 0 1-1.857-1.864 1.86 1.86 0 0 1 1.857-1.864 1.86 1.86 0 0 1 1.858 1.864zm14.857 0a1.86 1.86 0 0 1-1.857 1.864 1.86 1.86 0 0 1-1.858-1.864 1.86 1.86 0 0 1 1.858-1.864 1.86 1.86 0 0 1 1.857 1.864zm14.857 0a1.86 1.86 0 0 1-1.857 1.864 1.86 1.86 0 0 1-1.857-1.864 1.86 1.86 0 0 1 1.857-1.864 1.86 1.86 0 0 1 1.857 1.864zm14.857 0a1.86 1.86 0 0 1-1.857 1.864 1.86 1.86 0 0 1-1.857-1.864 1.86 1.86 0 0 1 1.857-1.864 1.86 1.86 0 0 1 1.857 1.864zM-4.286 453.176a1.86 1.86 0 0 1-1.857 1.864A1.86 1.86 0 0 1-8 453.176a1.86 1.86 0 0 1 1.857-1.864 1.86 1.86 0 0 1 1.857 1.864zm14.857 0a1.86 1.86 0 0 1-1.857 1.864 1.86 1.86 0 0 1-1.857-1.864 1.86 1.86 0 0 1 1.857-1.864 1.86 1.86 0 0 1 1.857 1.864zm14.858 0a1.86 1.86 0 0 1-1.858 1.864 1.86 1.86 0 0 1-1.857-1.864 1.86 1.86 0 0 1 1.857-1.864 1.86 1.86 0 0 1 1.858 1.864zm14.857 0a1.86 1.86 0 0 1-1.857 1.864 1.86 1.86 0 0 1-1.858-1.864 1.86 1.86 0 0 1 1.858-1.864 1.86 1.86 0 0 1 1.857 1.864zm14.857 0a1.86 1.86 0 0 1-1.857 1.864 1.86 1.86 0 0 1-1.857-1.864 1.86 1.86 0 0 1 1.857-1.864 1.86 1.86 0 0 1 1.857 1.864zm14.857 0a1.86 1.86 0 0 1-1.857 1.864 1.86 1.86 0 0 1-1.857-1.864 1.86 1.86 0 0 1 1.857-1.864A1.86 1.86 0 0 1 70 453.176zm14.857 0A1.86 1.86 0 0 1 83 455.04a1.86 1.86 0 0 1-1.857-1.864A1.86 1.86 0 0 1 83 451.312a1.86 1.86 0 0 1 1.857 1.864zm14.857 0a1.86 1.86 0 0 1-1.857 1.864A1.86 1.86 0 0 1 96 453.176a1.86 1.86 0 0 1 1.857-1.864 1.86 1.86 0 0 1 1.857 1.864zm14.857 0a1.86 1.86 0 0 1-1.857 1.864 1.86 1.86 0 0 1-1.857-1.864c0-1.029.832-1.864 1.857-1.864a1.86 1.86 0 0 1 1.857 1.864zm14.858 0a1.86 1.86 0 0 1-1.858 1.864 1.86 1.86 0 0 1-1.857-1.864c0-1.029.832-1.864 1.857-1.864 1.026 0 1.858.835 1.858 1.864zm14.857 0a1.86 1.86 0 0 1-1.857 1.864 1.86 1.86 0 0 1-1.858-1.864c0-1.029.832-1.864 1.858-1.864 1.025 0 1.857.835 1.857 1.864zm14.857 0a1.86 1.86 0 0 1-1.857 1.864 1.86 1.86 0 0 1-1.857-1.864 1.86 1.86 0 0 1 1.857-1.864c1.025 0 1.857.835 1.857 1.864zm14.857 0a1.86 1.86 0 0 1-1.857 1.864 1.86 1.86 0 0 1-1.857-1.864 1.86 1.86 0 0 1 1.857-1.864 1.86 1.86 0 0 1 1.857 1.864zM-4.286 468.09a1.86 1.86 0 0 1-1.857 1.864A1.86 1.86 0 0 1-8 468.09c0-1.03.831-1.865 1.857-1.865s1.857.835 1.857 1.865zm14.857 0a1.86 1.86 0 0 1-1.857 1.864 1.86 1.86 0 0 1-1.857-1.864c0-1.03.832-1.865 1.857-1.865a1.86 1.86 0 0 1 1.857 1.865zm14.858 0a1.86 1.86 0 0 1-1.858 1.864 1.86 1.86 0 0 1-1.857-1.864c0-1.03.832-1.865 1.857-1.865 1.026 0 1.858.835 1.858 1.865zm14.857 0a1.86 1.86 0 0 1-1.857 1.864 1.86 1.86 0 0 1-1.858-1.864c0-1.03.832-1.865 1.858-1.865 1.025 0 1.857.835 1.857 1.865zm14.857 0a1.86 1.86 0 0 1-1.857 1.864 1.86 1.86 0 0 1-1.857-1.864 1.86 1.86 0 0 1 1.857-1.865c1.025 0 1.857.835 1.857 1.865zm14.857 0a1.86 1.86 0 0 1-1.857 1.864 1.86 1.86 0 0 1-1.857-1.864 1.86 1.86 0 0 1 1.857-1.865c1.025 0 1.857.835 1.857 1.865zm14.857 0A1.86 1.86 0 0 1 83 469.954a1.86 1.86 0 0 1-1.857-1.864c0-1.03.831-1.865 1.857-1.865s1.857.835 1.857 1.865zm14.857 0a1.86 1.86 0 0 1-1.857 1.864A1.86 1.86 0 0 1 96 468.09c0-1.03.832-1.865 1.857-1.865a1.86 1.86 0 0 1 1.857 1.865zm14.857 0a1.86 1.86 0 0 1-1.857 1.864 1.861 1.861 0 0 1-1.857-1.864c0-1.03.832-1.865 1.857-1.865a1.86 1.86 0 0 1 1.857 1.865zm14.858 0a1.861 1.861 0 0 1-1.858 1.864 1.861 1.861 0 0 1-1.857-1.864c0-1.03.832-1.865 1.857-1.865 1.026 0 1.858.835 1.858 1.865zm14.857 0a1.861 1.861 0 0 1-1.857 1.864 1.861 1.861 0 0 1-1.858-1.864c0-1.03.832-1.865 1.858-1.865 1.025 0 1.857.835 1.857 1.865zm14.857 0a1.861 1.861 0 0 1-1.857 1.864 1.86 1.86 0 0 1-1.857-1.864 1.86 1.86 0 0 1 1.857-1.865c1.025 0 1.857.835 1.857 1.865zm14.857 0a1.86 1.86 0 0 1-1.857 1.864 1.86 1.86 0 0 1-1.857-1.864 1.86 1.86 0 0 1 1.857-1.865A1.86 1.86 0 0 1 174 468.09zM-4.286 483.003a1.86 1.86 0 0 1-1.857 1.864A1.86 1.86 0 0 1-8 483.003a1.86 1.86 0 0 1 1.857-1.864 1.86 1.86 0 0 1 1.857 1.864zm14.857 0a1.86 1.86 0 0 1-1.857 1.864 1.86 1.86 0 0 1-1.857-1.864 1.86 1.86 0 0 1 1.857-1.864 1.86 1.86 0 0 1 1.857 1.864zm14.858 0a1.86 1.86 0 0 1-1.858 1.864 1.86 1.86 0 0 1-1.857-1.864 1.86 1.86 0 0 1 1.857-1.864 1.86 1.86 0 0 1 1.858 1.864zm14.857 0a1.86 1.86 0 0 1-1.857 1.864 1.86 1.86 0 0 1-1.858-1.864 1.86 1.86 0 0 1 1.858-1.864 1.86 1.86 0 0 1 1.857 1.864zm14.857 0a1.86 1.86 0 0 1-1.857 1.864 1.86 1.86 0 0 1-1.857-1.864 1.86 1.86 0 0 1 1.857-1.864 1.86 1.86 0 0 1 1.857 1.864zm14.857 0a1.86 1.86 0 0 1-1.857 1.864 1.86 1.86 0 0 1-1.857-1.864 1.86 1.86 0 0 1 1.857-1.864A1.86 1.86 0 0 1 70 483.003zm14.857 0A1.86 1.86 0 0 1 83 484.867a1.86 1.86 0 0 1-1.857-1.864A1.86 1.86 0 0 1 83 481.139a1.86 1.86 0 0 1 1.857 1.864zm14.857 0a1.86 1.86 0 0 1-1.857 1.864A1.86 1.86 0 0 1 96 483.003a1.86 1.86 0 0 1 1.857-1.864 1.86 1.86 0 0 1 1.857 1.864zm14.857 0a1.86 1.86 0 0 1-1.857 1.864 1.861 1.861 0 0 1-1.857-1.864 1.86 1.86 0 0 1 1.857-1.864 1.86 1.86 0 0 1 1.857 1.864zm14.858 0a1.861 1.861 0 0 1-1.858 1.864 1.861 1.861 0 0 1-1.857-1.864 1.86 1.86 0 0 1 1.857-1.864 1.86 1.86 0 0 1 1.858 1.864zm14.857 0a1.861 1.861 0 0 1-1.857 1.864 1.861 1.861 0 0 1-1.858-1.864 1.86 1.86 0 0 1 1.858-1.864 1.86 1.86 0 0 1 1.857 1.864zm14.857 0a1.861 1.861 0 0 1-1.857 1.864 1.86 1.86 0 0 1-1.857-1.864 1.86 1.86 0 0 1 1.857-1.864 1.86 1.86 0 0 1 1.857 1.864zm14.857 0a1.86 1.86 0 0 1-1.857 1.864 1.86 1.86 0 0 1-1.857-1.864 1.86 1.86 0 0 1 1.857-1.864 1.86 1.86 0 0 1 1.857 1.864zM-4.286 497.916a1.86 1.86 0 0 1-1.857 1.864A1.86 1.86 0 0 1-8 497.916a1.86 1.86 0 0 1 1.857-1.864 1.86 1.86 0 0 1 1.857 1.864zm14.857 0a1.86 1.86 0 0 1-1.857 1.864 1.86 1.86 0 0 1-1.857-1.864 1.86 1.86 0 0 1 1.857-1.864 1.86 1.86 0 0 1 1.857 1.864zm14.858 0a1.86 1.86 0 0 1-1.858 1.864 1.86 1.86 0 0 1-1.857-1.864 1.86 1.86 0 0 1 1.857-1.864 1.86 1.86 0 0 1 1.858 1.864zm14.857 0a1.86 1.86 0 0 1-1.857 1.864 1.86 1.86 0 0 1-1.858-1.864 1.86 1.86 0 0 1 1.858-1.864 1.86 1.86 0 0 1 1.857 1.864zm14.857 0a1.86 1.86 0 0 1-1.857 1.864 1.86 1.86 0 0 1-1.857-1.864 1.86 1.86 0 0 1 1.857-1.864 1.86 1.86 0 0 1 1.857 1.864zm14.857 0a1.86 1.86 0 0 1-1.857 1.864 1.86 1.86 0 0 1-1.857-1.864 1.86 1.86 0 0 1 1.857-1.864A1.86 1.86 0 0 1 70 497.916zm14.857 0A1.86 1.86 0 0 1 83 499.78a1.86 1.86 0 0 1-1.857-1.864A1.86 1.86 0 0 1 83 496.052a1.86 1.86 0 0 1 1.857 1.864zm14.857 0a1.86 1.86 0 0 1-1.857 1.864A1.86 1.86 0 0 1 96 497.916a1.86 1.86 0 0 1 1.857-1.864 1.86 1.86 0 0 1 1.857 1.864zm14.857 0a1.86 1.86 0 0 1-1.857 1.864 1.86 1.86 0 0 1-1.857-1.864c0-1.029.832-1.864 1.857-1.864a1.86 1.86 0 0 1 1.857 1.864zm14.858 0a1.86 1.86 0 0 1-1.858 1.864 1.86 1.86 0 0 1-1.857-1.864c0-1.029.832-1.864 1.857-1.864 1.026 0 1.858.835 1.858 1.864zm14.857 0a1.86 1.86 0 0 1-1.857 1.864 1.86 1.86 0 0 1-1.858-1.864c0-1.029.832-1.864 1.858-1.864 1.025 0 1.857.835 1.857 1.864zm14.857 0a1.86 1.86 0 0 1-1.857 1.864 1.86 1.86 0 0 1-1.857-1.864 1.86 1.86 0 0 1 1.857-1.864c1.025 0 1.857.835 1.857 1.864zm14.857 0a1.86 1.86 0 0 1-1.857 1.864 1.86 1.86 0 0 1-1.857-1.864 1.86 1.86 0 0 1 1.857-1.864 1.86 1.86 0 0 1 1.857 1.864zM-4.286 512.829a1.86 1.86 0 0 1-1.857 1.865A1.861 1.861 0 0 1-8 512.829a1.86 1.86 0 0 1 1.857-1.864 1.86 1.86 0 0 1 1.857 1.864zm14.857 0a1.86 1.86 0 0 1-1.857 1.865 1.861 1.861 0 0 1-1.857-1.865 1.86 1.86 0 0 1 1.857-1.864 1.86 1.86 0 0 1 1.857 1.864zm14.858 0c0 1.03-.832 1.865-1.858 1.865a1.861 1.861 0 0 1-1.857-1.865 1.86 1.86 0 0 1 1.857-1.864 1.86 1.86 0 0 1 1.858 1.864zm14.857 0c0 1.03-.832 1.865-1.857 1.865a1.861 1.861 0 0 1-1.858-1.865 1.86 1.86 0 0 1 1.858-1.864 1.86 1.86 0 0 1 1.857 1.864zm14.857 0c0 1.03-.832 1.865-1.857 1.865a1.861 1.861 0 0 1-1.857-1.865 1.86 1.86 0 0 1 1.857-1.864 1.86 1.86 0 0 1 1.857 1.864zm14.857 0c0 1.03-.832 1.865-1.857 1.865a1.861 1.861 0 0 1-1.857-1.865 1.86 1.86 0 0 1 1.857-1.864A1.86 1.86 0 0 1 70 512.829zm14.857 0A1.86 1.86 0 0 1 83 514.694a1.861 1.861 0 0 1-1.857-1.865A1.86 1.86 0 0 1 83 510.965a1.86 1.86 0 0 1 1.857 1.864zm14.857 0a1.86 1.86 0 0 1-1.857 1.865A1.861 1.861 0 0 1 96 512.829a1.86 1.86 0 0 1 1.857-1.864 1.86 1.86 0 0 1 1.857 1.864zm14.857 0a1.86 1.86 0 0 1-1.857 1.865 1.861 1.861 0 0 1-1.857-1.865c0-1.029.832-1.864 1.857-1.864a1.86 1.86 0 0 1 1.857 1.864zm14.858 0c0 1.03-.832 1.865-1.858 1.865a1.861 1.861 0 0 1-1.857-1.865c0-1.029.832-1.864 1.857-1.864 1.026 0 1.858.835 1.858 1.864zm14.857 0c0 1.03-.832 1.865-1.857 1.865a1.862 1.862 0 0 1-1.858-1.865c0-1.029.832-1.864 1.858-1.864 1.025 0 1.857.835 1.857 1.864zm14.857 0c0 1.03-.832 1.865-1.857 1.865a1.86 1.86 0 0 1-1.857-1.865 1.86 1.86 0 0 1 1.857-1.864c1.025 0 1.857.835 1.857 1.864zm14.857 0a1.86 1.86 0 0 1-1.857 1.865 1.86 1.86 0 0 1-1.857-1.865 1.86 1.86 0 0 1 1.857-1.864 1.86 1.86 0 0 1 1.857 1.864zM-4.286 527.743a1.86 1.86 0 0 1-1.857 1.864A1.86 1.86 0 0 1-8 527.743a1.86 1.86 0 0 1 1.857-1.864 1.86 1.86 0 0 1 1.857 1.864zm14.857 0a1.86 1.86 0 0 1-1.857 1.864 1.86 1.86 0 0 1-1.857-1.864 1.86 1.86 0 0 1 1.857-1.864 1.86 1.86 0 0 1 1.857 1.864zm14.858 0a1.86 1.86 0 0 1-1.858 1.864 1.86 1.86 0 0 1-1.857-1.864 1.86 1.86 0 0 1 1.857-1.864 1.86 1.86 0 0 1 1.858 1.864zm14.857 0a1.86 1.86 0 0 1-1.857 1.864 1.86 1.86 0 0 1-1.858-1.864 1.86 1.86 0 0 1 1.858-1.864 1.86 1.86 0 0 1 1.857 1.864zm14.857 0a1.86 1.86 0 0 1-1.857 1.864 1.86 1.86 0 0 1-1.857-1.864 1.86 1.86 0 0 1 1.857-1.864 1.86 1.86 0 0 1 1.857 1.864zm14.857 0a1.86 1.86 0 0 1-1.857 1.864 1.86 1.86 0 0 1-1.857-1.864 1.86 1.86 0 0 1 1.857-1.864A1.86 1.86 0 0 1 70 527.743zm14.857 0A1.86 1.86 0 0 1 83 529.607a1.86 1.86 0 0 1-1.857-1.864A1.86 1.86 0 0 1 83 525.879a1.86 1.86 0 0 1 1.857 1.864zm14.857 0a1.86 1.86 0 0 1-1.857 1.864A1.86 1.86 0 0 1 96 527.743a1.86 1.86 0 0 1 1.857-1.864 1.86 1.86 0 0 1 1.857 1.864zm14.857 0a1.86 1.86 0 0 1-1.857 1.864 1.861 1.861 0 0 1-1.857-1.864 1.86 1.86 0 0 1 1.857-1.864 1.86 1.86 0 0 1 1.857 1.864zm14.858 0a1.861 1.861 0 0 1-1.858 1.864 1.861 1.861 0 0 1-1.857-1.864 1.86 1.86 0 0 1 1.857-1.864 1.86 1.86 0 0 1 1.858 1.864zm14.857 0a1.861 1.861 0 0 1-1.857 1.864 1.861 1.861 0 0 1-1.858-1.864 1.86 1.86 0 0 1 1.858-1.864 1.86 1.86 0 0 1 1.857 1.864zm14.857 0a1.861 1.861 0 0 1-1.857 1.864 1.86 1.86 0 0 1-1.857-1.864 1.86 1.86 0 0 1 1.857-1.864 1.86 1.86 0 0 1 1.857 1.864zm14.857 0a1.86 1.86 0 0 1-1.857 1.864 1.86 1.86 0 0 1-1.857-1.864 1.86 1.86 0 0 1 1.857-1.864 1.86 1.86 0 0 1 1.857 1.864zM-4.286 542.656a1.86 1.86 0 0 1-1.857 1.864A1.86 1.86 0 0 1-8 542.656a1.86 1.86 0 0 1 1.857-1.864 1.86 1.86 0 0 1 1.857 1.864zm14.857 0a1.86 1.86 0 0 1-1.857 1.864 1.86 1.86 0 0 1-1.857-1.864 1.86 1.86 0 0 1 1.857-1.864 1.86 1.86 0 0 1 1.857 1.864zm14.858 0a1.86 1.86 0 0 1-1.858 1.864 1.86 1.86 0 0 1-1.857-1.864 1.86 1.86 0 0 1 1.857-1.864 1.86 1.86 0 0 1 1.858 1.864zm14.857 0a1.86 1.86 0 0 1-1.857 1.864 1.86 1.86 0 0 1-1.858-1.864 1.86 1.86 0 0 1 1.858-1.864 1.86 1.86 0 0 1 1.857 1.864zm14.857 0a1.86 1.86 0 0 1-1.857 1.864 1.86 1.86 0 0 1-1.857-1.864 1.86 1.86 0 0 1 1.857-1.864 1.86 1.86 0 0 1 1.857 1.864zm14.857 0a1.86 1.86 0 0 1-1.857 1.864 1.86 1.86 0 0 1-1.857-1.864 1.86 1.86 0 0 1 1.857-1.864A1.86 1.86 0 0 1 70 542.656zm14.857 0A1.86 1.86 0 0 1 83 544.52a1.86 1.86 0 0 1-1.857-1.864A1.86 1.86 0 0 1 83 540.792a1.86 1.86 0 0 1 1.857 1.864zm14.857 0a1.86 1.86 0 0 1-1.857 1.864A1.86 1.86 0 0 1 96 542.656a1.86 1.86 0 0 1 1.857-1.864 1.86 1.86 0 0 1 1.857 1.864zm14.857 0a1.86 1.86 0 0 1-1.857 1.864 1.86 1.86 0 0 1-1.857-1.864c0-1.029.832-1.864 1.857-1.864a1.86 1.86 0 0 1 1.857 1.864zm14.858 0a1.86 1.86 0 0 1-1.858 1.864 1.86 1.86 0 0 1-1.857-1.864c0-1.029.832-1.864 1.857-1.864 1.026 0 1.858.835 1.858 1.864zm14.857 0a1.86 1.86 0 0 1-1.857 1.864 1.86 1.86 0 0 1-1.858-1.864c0-1.029.832-1.864 1.858-1.864 1.025 0 1.857.835 1.857 1.864zm14.857 0a1.86 1.86 0 0 1-1.857 1.864 1.86 1.86 0 0 1-1.857-1.864 1.86 1.86 0 0 1 1.857-1.864c1.025 0 1.857.835 1.857 1.864zm14.857 0a1.86 1.86 0 0 1-1.857 1.864 1.86 1.86 0 0 1-1.857-1.864 1.86 1.86 0 0 1 1.857-1.864 1.86 1.86 0 0 1 1.857 1.864zM-4.286 557.569a1.86 1.86 0 0 1-1.857 1.865A1.861 1.861 0 0 1-8 557.569a1.86 1.86 0 0 1 1.857-1.864 1.86 1.86 0 0 1 1.857 1.864zm14.857 0a1.86 1.86 0 0 1-1.857 1.865 1.861 1.861 0 0 1-1.857-1.865 1.86 1.86 0 0 1 1.857-1.864 1.86 1.86 0 0 1 1.857 1.864zm14.858 0c0 1.03-.832 1.865-1.858 1.865a1.861 1.861 0 0 1-1.857-1.865 1.86 1.86 0 0 1 1.857-1.864 1.86 1.86 0 0 1 1.858 1.864zm14.857 0c0 1.03-.832 1.865-1.857 1.865a1.861 1.861 0 0 1-1.858-1.865 1.86 1.86 0 0 1 1.858-1.864 1.86 1.86 0 0 1 1.857 1.864zm14.857 0c0 1.03-.832 1.865-1.857 1.865a1.861 1.861 0 0 1-1.857-1.865 1.86 1.86 0 0 1 1.857-1.864 1.86 1.86 0 0 1 1.857 1.864zm14.857 0c0 1.03-.832 1.865-1.857 1.865a1.861 1.861 0 0 1-1.857-1.865 1.86 1.86 0 0 1 1.857-1.864A1.86 1.86 0 0 1 70 557.569zm14.857 0A1.86 1.86 0 0 1 83 559.434a1.861 1.861 0 0 1-1.857-1.865A1.86 1.86 0 0 1 83 555.705a1.86 1.86 0 0 1 1.857 1.864zm14.857 0a1.86 1.86 0 0 1-1.857 1.865A1.861 1.861 0 0 1 96 557.569a1.86 1.86 0 0 1 1.857-1.864 1.86 1.86 0 0 1 1.857 1.864zm14.857 0a1.86 1.86 0 0 1-1.857 1.865 1.861 1.861 0 0 1-1.857-1.865c0-1.029.832-1.864 1.857-1.864a1.86 1.86 0 0 1 1.857 1.864zm14.858 0c0 1.03-.832 1.865-1.858 1.865a1.861 1.861 0 0 1-1.857-1.865c0-1.029.832-1.864 1.857-1.864 1.026 0 1.858.835 1.858 1.864zm14.857 0c0 1.03-.832 1.865-1.857 1.865a1.862 1.862 0 0 1-1.858-1.865c0-1.029.832-1.864 1.858-1.864 1.025 0 1.857.835 1.857 1.864zm14.857 0c0 1.03-.832 1.865-1.857 1.865a1.86 1.86 0 0 1-1.857-1.865 1.86 1.86 0 0 1 1.857-1.864c1.025 0 1.857.835 1.857 1.864zm14.857 0a1.86 1.86 0 0 1-1.857 1.865 1.86 1.86 0 0 1-1.857-1.865 1.86 1.86 0 0 1 1.857-1.864 1.86 1.86 0 0 1 1.857 1.864zM-4.286 572.483a1.86 1.86 0 0 1-1.857 1.864A1.86 1.86 0 0 1-8 572.483c0-1.03.831-1.865 1.857-1.865s1.857.835 1.857 1.865zm14.857 0a1.86 1.86 0 0 1-1.857 1.864 1.86 1.86 0 0 1-1.857-1.864c0-1.03.832-1.865 1.857-1.865a1.86 1.86 0 0 1 1.857 1.865zm14.858 0a1.86 1.86 0 0 1-1.858 1.864 1.86 1.86 0 0 1-1.857-1.864c0-1.03.832-1.865 1.857-1.865 1.026 0 1.858.835 1.858 1.865zm14.857 0a1.86 1.86 0 0 1-1.857 1.864 1.86 1.86 0 0 1-1.858-1.864c0-1.03.832-1.865 1.858-1.865 1.025 0 1.857.835 1.857 1.865zm14.857 0a1.86 1.86 0 0 1-1.857 1.864 1.86 1.86 0 0 1-1.857-1.864 1.86 1.86 0 0 1 1.857-1.865c1.025 0 1.857.835 1.857 1.865zm14.857 0a1.86 1.86 0 0 1-1.857 1.864 1.86 1.86 0 0 1-1.857-1.864 1.86 1.86 0 0 1 1.857-1.865c1.025 0 1.857.835 1.857 1.865zm14.857 0A1.86 1.86 0 0 1 83 574.347a1.86 1.86 0 0 1-1.857-1.864c0-1.03.831-1.865 1.857-1.865s1.857.835 1.857 1.865zm14.857 0a1.86 1.86 0 0 1-1.857 1.864A1.86 1.86 0 0 1 96 572.483c0-1.03.832-1.865 1.857-1.865a1.86 1.86 0 0 1 1.857 1.865zm14.857 0a1.86 1.86 0 0 1-1.857 1.864 1.861 1.861 0 0 1-1.857-1.864c0-1.03.832-1.865 1.857-1.865a1.86 1.86 0 0 1 1.857 1.865zm14.858 0a1.861 1.861 0 0 1-1.858 1.864 1.861 1.861 0 0 1-1.857-1.864c0-1.03.832-1.865 1.857-1.865 1.026 0 1.858.835 1.858 1.865zm14.857 0a1.861 1.861 0 0 1-1.857 1.864 1.861 1.861 0 0 1-1.858-1.864c0-1.03.832-1.865 1.858-1.865 1.025 0 1.857.835 1.857 1.865zm14.857 0a1.861 1.861 0 0 1-1.857 1.864 1.86 1.86 0 0 1-1.857-1.864 1.86 1.86 0 0 1 1.857-1.865c1.025 0 1.857.835 1.857 1.865zm14.857 0a1.86 1.86 0 0 1-1.857 1.864 1.86 1.86 0 0 1-1.857-1.864 1.86 1.86 0 0 1 1.857-1.865 1.86 1.86 0 0 1 1.857 1.865zM-4.286 587.396a1.86 1.86 0 0 1-1.857 1.864A1.86 1.86 0 0 1-8 587.396a1.86 1.86 0 0 1 1.857-1.864 1.86 1.86 0 0 1 1.857 1.864zm14.857 0a1.86 1.86 0 0 1-1.857 1.864 1.86 1.86 0 0 1-1.857-1.864 1.86 1.86 0 0 1 1.857-1.864 1.86 1.86 0 0 1 1.857 1.864zm14.858 0a1.86 1.86 0 0 1-1.858 1.864 1.86 1.86 0 0 1-1.857-1.864 1.86 1.86 0 0 1 1.857-1.864 1.86 1.86 0 0 1 1.858 1.864zm14.857 0a1.86 1.86 0 0 1-1.857 1.864 1.86 1.86 0 0 1-1.858-1.864 1.86 1.86 0 0 1 1.858-1.864 1.86 1.86 0 0 1 1.857 1.864zm14.857 0a1.86 1.86 0 0 1-1.857 1.864 1.86 1.86 0 0 1-1.857-1.864 1.86 1.86 0 0 1 1.857-1.864 1.86 1.86 0 0 1 1.857 1.864zm14.857 0a1.86 1.86 0 0 1-1.857 1.864 1.86 1.86 0 0 1-1.857-1.864 1.86 1.86 0 0 1 1.857-1.864A1.86 1.86 0 0 1 70 587.396zm14.857 0A1.86 1.86 0 0 1 83 589.26a1.86 1.86 0 0 1-1.857-1.864A1.86 1.86 0 0 1 83 585.532a1.86 1.86 0 0 1 1.857 1.864zm14.857 0a1.86 1.86 0 0 1-1.857 1.864A1.86 1.86 0 0 1 96 587.396a1.86 1.86 0 0 1 1.857-1.864 1.86 1.86 0 0 1 1.857 1.864zm14.857 0a1.86 1.86 0 0 1-1.857 1.864 1.861 1.861 0 0 1-1.857-1.864 1.86 1.86 0 0 1 1.857-1.864 1.86 1.86 0 0 1 1.857 1.864zm14.858 0a1.861 1.861 0 0 1-1.858 1.864 1.861 1.861 0 0 1-1.857-1.864 1.86 1.86 0 0 1 1.857-1.864 1.86 1.86 0 0 1 1.858 1.864zm14.857 0a1.861 1.861 0 0 1-1.857 1.864 1.861 1.861 0 0 1-1.858-1.864 1.86 1.86 0 0 1 1.858-1.864 1.86 1.86 0 0 1 1.857 1.864zm14.857 0a1.861 1.861 0 0 1-1.857 1.864 1.86 1.86 0 0 1-1.857-1.864 1.86 1.86 0 0 1 1.857-1.864 1.86 1.86 0 0 1 1.857 1.864zm14.857 0a1.86 1.86 0 0 1-1.857 1.864 1.86 1.86 0 0 1-1.857-1.864 1.86 1.86 0 0 1 1.857-1.864 1.86 1.86 0 0 1 1.857 1.864zM-4.286 602.309a1.86 1.86 0 0 1-1.857 1.864A1.86 1.86 0 0 1-8 602.309a1.86 1.86 0 0 1 1.857-1.864 1.86 1.86 0 0 1 1.857 1.864zm14.857 0a1.86 1.86 0 0 1-1.857 1.864 1.86 1.86 0 0 1-1.857-1.864 1.86 1.86 0 0 1 1.857-1.864 1.86 1.86 0 0 1 1.857 1.864zm14.858 0a1.86 1.86 0 0 1-1.858 1.864 1.86 1.86 0 0 1-1.857-1.864 1.86 1.86 0 0 1 1.857-1.864 1.86 1.86 0 0 1 1.858 1.864zm14.857 0a1.86 1.86 0 0 1-1.857 1.864 1.86 1.86 0 0 1-1.858-1.864 1.86 1.86 0 0 1 1.858-1.864 1.86 1.86 0 0 1 1.857 1.864zm14.857 0a1.86 1.86 0 0 1-1.857 1.864 1.86 1.86 0 0 1-1.857-1.864 1.86 1.86 0 0 1 1.857-1.864 1.86 1.86 0 0 1 1.857 1.864zm14.857 0a1.86 1.86 0 0 1-1.857 1.864 1.86 1.86 0 0 1-1.857-1.864 1.86 1.86 0 0 1 1.857-1.864A1.86 1.86 0 0 1 70 602.309zm14.857 0A1.86 1.86 0 0 1 83 604.173a1.86 1.86 0 0 1-1.857-1.864A1.86 1.86 0 0 1 83 600.445a1.86 1.86 0 0 1 1.857 1.864zm14.857 0a1.86 1.86 0 0 1-1.857 1.864A1.86 1.86 0 0 1 96 602.309a1.86 1.86 0 0 1 1.857-1.864 1.86 1.86 0 0 1 1.857 1.864zm14.857 0a1.86 1.86 0 0 1-1.857 1.864 1.86 1.86 0 0 1-1.857-1.864c0-1.029.832-1.864 1.857-1.864a1.86 1.86 0 0 1 1.857 1.864zm14.858 0a1.86 1.86 0 0 1-1.858 1.864 1.86 1.86 0 0 1-1.857-1.864c0-1.029.832-1.864 1.857-1.864 1.026 0 1.858.835 1.858 1.864zm14.857 0a1.86 1.86 0 0 1-1.857 1.864 1.86 1.86 0 0 1-1.858-1.864c0-1.029.832-1.864 1.858-1.864 1.025 0 1.857.835 1.857 1.864zm14.857 0a1.86 1.86 0 0 1-1.857 1.864 1.86 1.86 0 0 1-1.857-1.864 1.86 1.86 0 0 1 1.857-1.864c1.025 0 1.857.835 1.857 1.864zm14.857 0a1.86 1.86 0 0 1-1.857 1.864 1.86 1.86 0 0 1-1.857-1.864 1.86 1.86 0 0 1 1.857-1.864 1.86 1.86 0 0 1 1.857 1.864zM-4.286 617.223a1.86 1.86 0 0 1-1.857 1.864A1.86 1.86 0 0 1-8 617.223c0-1.03.831-1.865 1.857-1.865s1.857.835 1.857 1.865zm14.857 0a1.86 1.86 0 0 1-1.857 1.864 1.86 1.86 0 0 1-1.857-1.864c0-1.03.832-1.865 1.857-1.865a1.86 1.86 0 0 1 1.857 1.865zm14.858 0a1.86 1.86 0 0 1-1.858 1.864 1.86 1.86 0 0 1-1.857-1.864c0-1.03.832-1.865 1.857-1.865 1.026 0 1.858.835 1.858 1.865zm14.857 0a1.86 1.86 0 0 1-1.857 1.864 1.86 1.86 0 0 1-1.858-1.864c0-1.03.832-1.865 1.858-1.865 1.025 0 1.857.835 1.857 1.865zm14.857 0a1.86 1.86 0 0 1-1.857 1.864 1.86 1.86 0 0 1-1.857-1.864 1.86 1.86 0 0 1 1.857-1.865c1.025 0 1.857.835 1.857 1.865zm14.857 0a1.86 1.86 0 0 1-1.857 1.864 1.86 1.86 0 0 1-1.857-1.864 1.86 1.86 0 0 1 1.857-1.865c1.025 0 1.857.835 1.857 1.865zm14.857 0A1.86 1.86 0 0 1 83 619.087a1.86 1.86 0 0 1-1.857-1.864c0-1.03.831-1.865 1.857-1.865s1.857.835 1.857 1.865zm14.857 0a1.86 1.86 0 0 1-1.857 1.864A1.86 1.86 0 0 1 96 617.223c0-1.03.832-1.865 1.857-1.865a1.86 1.86 0 0 1 1.857 1.865zm14.857 0a1.86 1.86 0 0 1-1.857 1.864 1.861 1.861 0 0 1-1.857-1.864c0-1.03.832-1.865 1.857-1.865a1.86 1.86 0 0 1 1.857 1.865zm14.858 0a1.861 1.861 0 0 1-1.858 1.864 1.861 1.861 0 0 1-1.857-1.864c0-1.03.832-1.865 1.857-1.865 1.026 0 1.858.835 1.858 1.865zm14.857 0a1.861 1.861 0 0 1-1.857 1.864 1.861 1.861 0 0 1-1.858-1.864c0-1.03.832-1.865 1.858-1.865 1.025 0 1.857.835 1.857 1.865zm14.857 0a1.861 1.861 0 0 1-1.857 1.864 1.86 1.86 0 0 1-1.857-1.864 1.86 1.86 0 0 1 1.857-1.865c1.025 0 1.857.835 1.857 1.865zm14.857 0a1.86 1.86 0 0 1-1.857 1.864 1.86 1.86 0 0 1-1.857-1.864 1.86 1.86 0 0 1 1.857-1.865 1.86 1.86 0 0 1 1.857 1.865zM-4.286 632.136A1.86 1.86 0 0 1-6.143 634 1.86 1.86 0 0 1-8 632.136a1.86 1.86 0 0 1 1.857-1.864 1.86 1.86 0 0 1 1.857 1.864zm14.857 0A1.86 1.86 0 0 1 8.714 634a1.86 1.86 0 0 1-1.857-1.864 1.86 1.86 0 0 1 1.857-1.864 1.86 1.86 0 0 1 1.857 1.864zm14.858 0A1.86 1.86 0 0 1 23.57 634a1.86 1.86 0 0 1-1.857-1.864 1.86 1.86 0 0 1 1.857-1.864 1.86 1.86 0 0 1 1.858 1.864zm14.857 0A1.86 1.86 0 0 1 38.429 634a1.86 1.86 0 0 1-1.858-1.864 1.86 1.86 0 0 1 1.858-1.864 1.86 1.86 0 0 1 1.857 1.864zm14.857 0A1.86 1.86 0 0 1 53.286 634a1.86 1.86 0 0 1-1.857-1.864 1.86 1.86 0 0 1 1.857-1.864 1.86 1.86 0 0 1 1.857 1.864zm14.857 0A1.86 1.86 0 0 1 68.143 634a1.86 1.86 0 0 1-1.857-1.864 1.86 1.86 0 0 1 1.857-1.864A1.86 1.86 0 0 1 70 632.136zm14.857 0A1.86 1.86 0 0 1 83 634a1.86 1.86 0 0 1-1.857-1.864A1.86 1.86 0 0 1 83 630.272a1.86 1.86 0 0 1 1.857 1.864zm14.857 0A1.86 1.86 0 0 1 97.857 634 1.86 1.86 0 0 1 96 632.136a1.86 1.86 0 0 1 1.857-1.864 1.86 1.86 0 0 1 1.857 1.864zm14.857 0a1.86 1.86 0 0 1-1.857 1.864 1.861 1.861 0 0 1-1.857-1.864 1.86 1.86 0 0 1 1.857-1.864 1.86 1.86 0 0 1 1.857 1.864zm14.858 0a1.861 1.861 0 0 1-1.858 1.864 1.861 1.861 0 0 1-1.857-1.864 1.86 1.86 0 0 1 1.857-1.864 1.86 1.86 0 0 1 1.858 1.864zm14.857 0a1.861 1.861 0 0 1-1.857 1.864 1.861 1.861 0 0 1-1.858-1.864 1.86 1.86 0 0 1 1.858-1.864 1.86 1.86 0 0 1 1.857 1.864zm14.857 0a1.861 1.861 0 0 1-1.857 1.864 1.86 1.86 0 0 1-1.857-1.864 1.86 1.86 0 0 1 1.857-1.864 1.86 1.86 0 0 1 1.857 1.864zm14.857 0a1.86 1.86 0 0 1-1.857 1.864 1.86 1.86 0 0 1-1.857-1.864 1.86 1.86 0 0 1 1.857-1.864 1.86 1.86 0 0 1 1.857 1.864z" fill="currentColor"/></svg>